<svg width="18" height="18" viewBox="0 0 18 18" fill="none" xmlns="http://www.w3.org/2000/svg">
<rect width="18" height="18" fill="#1E1E1E"/>
<g id="Desktop - 7">
<rect width="1440" height="3046" transform="translate(-254 -788)" fill="black"/>
<g id="Group 13167">
<g id="Frame 2028433467">
<rect x="-80" y="-1" width="102" height="20" rx="10" fill="#22223B" fill-opacity="0.6"/>
<g id="crown">
<mask id="mask0_0_1" style="mask-type:alpha" maskUnits="userSpaceOnUse" x="0" y="0" width="18" height="18">
<rect id="Bounding box" width="18" height="18" fill="#D9D9D9"/>
</mask>
<g mask="url(#mask0_0_1)">
<path id="crown_2" d="M4.35993 14.0248V13.0498H13.6397V14.0248H4.35993ZM4.33837 12.0056L3.3358 6.73105C3.3108 6.7483 3.28268 6.75574 3.25143 6.75337C3.22018 6.75099 3.1858 6.7498 3.1483 6.7498C2.8743 6.7498 2.64355 6.65518 2.45605 6.46593C2.26855 6.27656 2.1748 6.04668 2.1748 5.77631C2.1748 5.50181 2.26855 5.26849 2.45605 5.07637C2.64355 4.88437 2.87449 4.78837 3.14887 4.78837C3.42312 4.78837 3.65624 4.88437 3.84824 5.07637C4.04037 5.26849 4.13643 5.50181 4.13643 5.77631C4.13643 5.84606 4.13062 5.91087 4.11899 5.97074C4.10749 6.03049 4.08299 6.09306 4.04549 6.15843L6.43687 7.22137L8.47912 3.98924C8.33112 3.90362 8.21624 3.78705 8.13449 3.63955C8.05274 3.49193 8.01187 3.33299 8.01187 3.16274C8.01187 2.88837 8.10787 2.65512 8.29987 2.46299C8.49187 2.27087 8.72506 2.1748 8.99943 2.1748C9.27368 2.1748 9.50699 2.27074 9.69937 2.46262C9.89162 2.65437 9.98774 2.8873 9.98774 3.16143C9.98774 3.3383 9.94687 3.49912 9.86512 3.64387C9.78337 3.78849 9.66849 3.90362 9.52049 3.98924L11.5627 7.22137L13.9541 6.15843C13.9224 6.09481 13.8993 6.03224 13.8849 5.97074C13.8704 5.90937 13.8632 5.84456 13.8632 5.77631C13.8632 5.50181 13.9569 5.26849 14.1444 5.07637C14.3319 4.88437 14.5629 4.78837 14.8372 4.78837C15.1115 4.78837 15.3447 4.88437 15.5368 5.07637C15.7288 5.26849 15.8248 5.50181 15.8248 5.77631C15.8248 6.04593 15.7286 6.27562 15.5362 6.46537C15.3439 6.65499 15.1102 6.7498 14.8354 6.7498H14.7424C14.715 6.7498 14.688 6.74356 14.6614 6.73105L13.6612 12.0056H4.33837ZM5.14593 11.0306H12.8537L13.5576 7.42612L11.1791 8.48493L8.9998 5.04506L6.82049 8.48493L4.44205 7.42612L5.14593 11.0306Z" fill="white"/>
</g>
</g>
</g>
</g>
</g>
</svg>
