<svg width="18" height="18" viewBox="0 0 18 18" fill="none" xmlns="http://www.w3.org/2000/svg">
<rect width="18" height="18" fill="#1E1E1E"/>
<g id="Desktop - 7">
<rect width="1440" height="3046" transform="translate(-364 -788)" fill="black"/>
<g id="Group 13167">
<g id="Frame 2028433468">
<rect x="-80" y="-1" width="102" height="20" rx="10" fill="#22223B" fill-opacity="0.6"/>
<g id="diamond">
<mask id="mask0_0_1" style="mask-type:alpha" maskUnits="userSpaceOnUse" x="0" y="0" width="18" height="18">
<rect id="Bounding box" width="18" height="18" fill="#D9D9D9"/>
</mask>
<g mask="url(#mask0_0_1)">
<path id="diamond_2" d="M8.99994 15.0045L2.02344 7.17132L3.71525 2.8877H14.2846L15.9764 7.17132L8.99994 15.0045ZM7.08444 6.7127H10.9154L9.49025 3.8627H8.50962L7.08444 6.7127ZM8.51244 13.0256V7.6877H3.80319L8.51244 13.0256ZM9.48744 13.0256L14.1967 7.6877H9.48744V13.0256ZM11.9971 6.7127H14.7779L13.6153 3.8627H10.5719L11.9971 6.7127ZM3.22194 6.7127H6.00275L7.42794 3.8627H4.40338L3.22194 6.7127Z" fill="white"/>
</g>
</g>
</g>
</g>
</g>
</svg>
