<svg width="32" height="32" viewBox="0 0 32 32" fill="none" xmlns="http://www.w3.org/2000/svg">
<rect width="32" height="32" fill="#1E1E1E"/>
<g id="Desktop - 7">
<rect width="1440" height="3046" transform="translate(-850 -2152)" fill="black"/>
<g id="vuesax/bulk/headphone">
<g id="vuesax/bulk/headphone_2">
<g id="headphone">
<path id="Vector" opacity="0.4" d="M3.66642 24.8667C3.11976 24.8667 2.66642 24.4134 2.66642 23.8667V16.2667C2.59976 12.6534 3.94642 9.24007 6.45309 6.68007C8.95976 4.1334 12.3198 2.7334 15.9331 2.7334C23.3198 2.7334 29.3331 8.74673 29.3331 16.1334V23.7334C29.3331 24.2801 28.8798 24.7334 28.3331 24.7334C27.7864 24.7334 27.3331 24.2801 27.3331 23.7334V16.1334C27.3331 9.8534 22.2264 4.7334 15.9331 4.7334C12.8531 4.7334 9.99976 5.92007 7.87976 8.08007C5.74642 10.2534 4.61309 13.1467 4.66642 16.2401V23.8534C4.66642 24.4134 4.22642 24.8667 3.66642 24.8667Z" fill="#C9ADA7"/>
<path id="Vector_2" d="M7.92033 16.6001H7.74699C4.94699 16.6001 2.66699 18.8801 2.66699 21.6801V24.1868C2.66699 26.9868 4.94699 29.2668 7.74699 29.2668H7.92033C10.7203 29.2668 13.0003 26.9868 13.0003 24.1868V21.6801C13.0003 18.8801 10.7203 16.6001 7.92033 16.6001Z" fill="#C9ADA7"/>
<path id="Vector_3" d="M24.2533 16.6001H24.08C21.28 16.6001 19 18.8801 19 21.6801V24.1868C19 26.9868 21.28 29.2668 24.08 29.2668H24.2533C27.0533 29.2668 29.3333 26.9868 29.3333 24.1868V21.6801C29.3333 18.8801 27.0533 16.6001 24.2533 16.6001Z" fill="#C9ADA7"/>
</g>
</g>
</g>
</g>
</svg>
