<svg width="24" height="24" viewBox="0 0 24 24" fill="none" xmlns="http://www.w3.org/2000/svg">
<rect width="24" height="24" fill="#1E1E1E"/>
<g id="Desktop - 7">
<rect width="1440" height="3046" transform="translate(-1194 -471)" fill="black"/>
<g id="Frame 1">
<g id="Frame 2">
<rect x="-225.833" y="-15.5" width="265.333" height="55" rx="15.5" stroke="#969696"/>
<g id="vuesax/linear/location">
<g id="vuesax/linear/location_2">
<g id="location">
<path id="Vector" d="M11.9999 13.43C13.723 13.43 15.1199 12.0331 15.1199 10.31C15.1199 8.58687 13.723 7.19 11.9999 7.19C10.2768 7.19 8.87988 8.58687 8.87988 10.31C8.87988 12.0331 10.2768 13.43 11.9999 13.43Z" stroke="#969696" stroke-width="1.5"/>
<path id="Vector_2" d="M3.61971 8.49C5.58971 -0.169998 18.4197 -0.159997 20.3797 8.5C21.5297 13.58 18.3697 17.88 15.5997 20.54C13.5897 22.48 10.4097 22.48 8.38971 20.54C5.62971 17.88 2.46971 13.57 3.61971 8.49Z" stroke="#969696" stroke-width="1.5"/>
</g>
</g>
</g>
</g>
</g>
</g>
</svg>
