<svg width="40" height="40" viewBox="0 0 40 40" fill="none" xmlns="http://www.w3.org/2000/svg">
<rect width="40" height="40" fill="#1E1E1E"/>
<g id="Desktop - 7">
<rect width="1440" height="3046" transform="translate(-688 -2507)" fill="black"/>
<g id="Group 13179">
<g id="vuesax/linear/map">
<g id="vuesax/linear/map_2">
<g id="map">
<path id="Vector" d="M3.81641 12.9667V29.1834C3.81641 32.35 6.06641 33.65 8.79974 32.0834L12.7164 29.85C13.5664 29.3667 14.9831 29.3167 15.8664 29.7667L24.6164 34.15C25.4997 34.5834 26.9164 34.55 27.7664 34.0667L34.9831 29.9334C35.8997 29.4 36.6664 28.1 36.6664 27.0334V10.8167C36.6664 7.65004 34.4164 6.35004 31.6831 7.91671L27.7664 10.15C26.9164 10.6334 25.4997 10.6834 24.6164 10.2334L15.8664 5.86671C14.9831 5.43337 13.5664 5.46671 12.7164 5.95004L5.49974 10.0834C4.56641 10.6167 3.81641 11.9167 3.81641 12.9667Z" stroke="white" stroke-width="1.5" stroke-linecap="round" stroke-linejoin="round"/>
<path id="Vector_2" d="M14.2666 6.66675V28.3334" stroke="white" stroke-width="1.5" stroke-linecap="round" stroke-linejoin="round"/>
<path id="Vector_3" d="M26.2168 11.0334V33.3334" stroke="white" stroke-width="1.5" stroke-linecap="round" stroke-linejoin="round"/>
</g>
</g>
</g>
</g>
</g>
</svg>
