<svg width="32" height="32" viewBox="0 0 32 32" fill="none" xmlns="http://www.w3.org/2000/svg">
<rect width="32" height="32" fill="#1E1E1E"/>
<g id="Desktop - 7">
<rect width="1440" height="3046" transform="translate(-1290 -2152)" fill="black"/>
<g id="vuesax/bulk/microscope">
<g id="vuesax/bulk/microscope_2">
<g id="microscope">
<g id="Group">
<path id="Vector" d="M19.7872 14.5333L27.3338 9.47994C28.0938 8.97327 28.2938 7.93331 27.7872 7.18664L25.3605 3.57328C24.8538 2.81328 23.8138 2.61328 23.0672 3.11995L15.5205 8.1733L19.7872 14.5333Z" fill="#C9ADA7"/>
<path id="Vector_2" d="M19.3609 13.8934L17.0142 15.4667L13.4542 17.8534L12.9875 18.16L12.7742 17.84L9.78755 13.3867L9.57422 13.0667L15.9476 8.80005L19.3609 13.8934Z" fill="#C9ADA7"/>
<path id="Vector_3" d="M7.52046 21.36L12.7871 17.84L9.80046 13.3867L4.53379 16.9067C3.92046 17.32 3.76045 18.1467 4.17379 18.7601L5.68046 21C6.08046 21.6134 6.90712 21.7734 7.52046 21.36Z" fill="#C9ADA7"/>
</g>
<path id="Vector_4" opacity="0.4" d="M22.0799 29.0801C21.9465 29.1335 21.7999 29.1735 21.6665 29.1735C21.2799 29.1735 20.9199 28.9468 20.7465 28.5734L15.7732 17.5868L10.7332 28.5868C10.5599 28.9468 10.1999 29.1735 9.81319 29.1735C9.67986 29.1735 9.5332 29.1335 9.39986 29.0801C8.90653 28.8401 8.67986 28.2535 8.90653 27.7468L13.4532 17.8535L17.0132 15.4668L22.5732 27.7601C22.7999 28.2535 22.5732 28.8535 22.0799 29.0801Z" fill="#C9ADA7"/>
</g>
</g>
</g>
</g>
</svg>
