<svg width="36" height="36" viewBox="0 0 36 36" fill="none" xmlns="http://www.w3.org/2000/svg">
<rect width="36" height="36" fill="#1E1E1E"/>
<g id="Desktop - 7">
<rect width="1440" height="3046" transform="translate(-249 -2406)" fill="black"/>
<g id="Group 13179">
<g id="vuesax/linear/routing">
<g id="vuesax/linear/routing_2">
<g id="routing">
<path id="Vector" d="M3.10508 6.90007C4.30508 1.71007 12.1201 1.71007 13.3051 6.90007C14.0101 9.94507 12.0751 12.5251 10.3951 14.1301C9.16508 15.3001 7.23008 15.2851 6.00008 14.1301C4.33508 12.5251 2.40008 9.94507 3.10508 6.90007Z" stroke="white" stroke-width="1.5"/>
<path id="Vector_2" d="M22.605 24.9001C23.805 19.7101 31.665 19.7101 32.865 24.9001C33.57 27.9451 31.635 30.5251 29.94 32.1301C28.71 33.3001 26.76 33.2851 25.53 32.1301C23.835 30.5251 21.9 27.9451 22.605 24.9001Z" stroke="white" stroke-width="1.5"/>
<path id="Vector_3" d="M17.9996 7.5H22.0196C24.7946 7.5 26.0846 10.935 23.9996 12.765L12.0146 23.25C9.92955 25.065 11.2196 28.5 13.9796 28.5H17.9996" stroke="white" stroke-width="1.5" stroke-linecap="round" stroke-linejoin="round"/>
<path id="Vector_4" d="M8.22957 8.25H8.2469" stroke="white" stroke-width="2" stroke-linecap="round" stroke-linejoin="round"/>
<path id="Vector_5" d="M27.7296 26.25H27.7469" stroke="white" stroke-width="2" stroke-linecap="round" stroke-linejoin="round"/>
</g>
</g>
</g>
</g>
</g>
</svg>
