<svg width="32" height="32" viewBox="0 0 32 32" fill="none" xmlns="http://www.w3.org/2000/svg">
<rect width="32" height="32" fill="#1E1E1E"/>
<g id="Desktop - 7">
<rect width="1440" height="3046" transform="translate(-410 -2152)" fill="black"/>
<g id="vuesax/bulk/shield">
<g id="vuesax/bulk/shield_2">
<g id="shield">
<path id="Vector" opacity="0.4" d="M27.2138 9.27992V13.0666L9.86711 25.7866L6.36044 23.1599C5.49378 22.5066 4.78711 21.1066 4.78711 20.0266V9.27992C4.78711 7.78659 5.93378 6.13326 7.33378 5.61326L14.6271 2.87992C15.3871 2.59992 16.6138 2.59992 17.3738 2.87992L24.6671 5.61326C26.0671 6.13326 27.2138 7.78659 27.2138 9.27992Z" fill="#C9ADA7"/>
<path id="Vector_2" d="M27.2138 14.8933V20.0266C27.2138 21.1066 26.5071 22.5066 25.6404 23.16L18.3471 28.6133C17.7071 29.0933 16.8538 29.3333 16.0004 29.3333C15.1471 29.3333 14.2938 29.0933 13.6538 28.6133L11.0938 26.7066L27.2138 14.8933Z" fill="#C9ADA7"/>
</g>
</g>
</g>
</g>
</svg>
