<svg width="104" height="24" viewBox="0 0 104 24" fill="none" xmlns="http://www.w3.org/2000/svg">
<path d="M13.6333 -1.04904e-05H14.6893V0.62399H14.0333C13.8093 0.62399 13.6333 0.81599 13.6333 1.03999V9.32799L12.4013 10.56H13.1373H14.6893V11.2H13.1373H11.9053H10.3533V10.56H11.4253V1.85599L7.5693 11.2H7.0893L3.2493 1.88799V10.144C3.2493 10.384 3.4413 10.56 3.6653 10.56H4.3213V11.2H1.5533V10.56H2.2093C2.4333 10.56 2.6253 10.384 2.6253 10.144V0.76799C2.4973 0.68799 2.3533 0.62399 2.2413 0.62399H1.5373V-1.04904e-05H6.00131V0.62399H5.40931C5.3613 0.62399 5.2813 0.63999 5.2493 0.70399C5.2013 0.75199 5.2173 0.84799 5.2493 0.94399L8.19331 8.04799L11.2173 0.68799C11.1533 0.65599 11.0893 0.62399 11.0093 0.62399H10.3533V-1.04904e-05H11.6653H11.9053H13.6333ZM16.3029 -1.04904e-05H17.3589H26.8309V2.47999H26.1909V1.85599C26.1909 1.18399 25.6469 0.62399 24.9749 0.62399H19.5669V5.27999H21.3749C21.5989 5.27999 21.7749 5.08799 21.7749 4.86399V4.20799H22.4149V6.95999H21.7749V6.31999C21.7749 6.07999 21.5989 5.90399 21.3749 5.90399H19.5669V10.56H24.9749C25.6469 10.56 26.1909 10.016 26.1909 9.34399V8.70399H26.8309V11.2H17.8389H16.3029V10.56H17.3589H18.4309H18.5909L17.3589 9.32799V1.03999C17.3589 0.81599 17.1669 0.62399 16.9429 0.62399H16.3029V-1.04904e-05ZM38.9716 -1.04904e-05H40.0276V0.62399H39.3716C39.1476 0.62399 38.9716 0.81599 38.9716 1.03999V10.56H40.0276V11.2H38.4756H37.2436H35.6916V10.56H36.7636H37.9956L36.7636 9.32799V5.90399H31.7076V10.144C31.7076 10.384 31.8836 10.56 32.1236 10.56H32.7636V11.2H31.2116H29.9796H28.4436V10.56H29.0836C29.3076 10.56 29.4996 10.384 29.4996 10.144V0.62399H28.4436V-1.04904e-05H29.4996H31.7076H32.7636V0.62399H31.2116H30.4756L31.7076 1.85599V5.27999H36.7636V1.03999C36.7636 0.81599 36.5716 0.62399 36.3476 0.62399H35.6916V-1.04904e-05H36.7636H38.9716ZM51.6463 10.016C51.8383 10.304 52.2383 10.56 52.5103 10.56H53.2623V11.2H48.6063L48.5903 10.56H49.1663C49.2303 10.56 49.2623 10.544 49.2623 10.544C49.2783 10.512 49.2783 10.416 49.1823 10.288L47.9503 8.39999H44.9263V9.32799L43.6943 10.56H45.9823V11.2H41.6623V10.56H42.7183V1.03999C42.7183 0.81599 42.5263 0.62399 42.3023 0.62399H41.6623V-1.04904e-05H47.9983C50.3183 -1.04904e-05 52.2063 1.88799 52.2063 4.19199C52.2063 5.66399 51.4383 7.02399 50.1903 7.77599L51.6463 10.016ZM49.2623 6.95999C49.7263 6.27199 49.9983 5.26399 49.9983 4.19199C49.9983 2.25599 49.0863 0.62399 47.9983 0.62399H44.9263V7.75999H47.9983C48.4623 7.75999 48.8943 7.47199 49.2623 6.95999ZM65.2651 10.56H66.4651V11.2H63.6651H62.0011V10.56H62.8811L61.9851 8.39999H57.6491L56.8811 10.272C56.8491 10.368 56.8491 10.448 56.8811 10.496C56.9131 10.56 56.9931 10.56 57.0411 10.56H57.6331V11.2H54.8811V10.56H55.5851C55.8411 10.56 56.1771 10.32 56.2891 10.064L60.3851 0.0959902L60.4171 -1.04904e-05H60.9131L64.7211 9.24799L63.9531 10.56H65.2651ZM57.9051 7.75999H61.7291L59.8091 3.13599L57.9051 7.75999ZM78.6278 2.95999C78.6278 4.09599 77.9878 5.10399 77.0118 5.59999C77.9878 6.07999 78.6278 7.08799 78.6278 8.23999C78.6278 9.87199 77.2998 11.2 75.6838 11.2H68.0998V10.56H69.1558H70.3238H70.3878L69.1558 9.32799V1.03999C69.1558 0.81599 68.9638 0.62399 68.7398 0.62399H68.0998V-1.04904e-05H69.1558H75.6838C77.2998 -1.04904e-05 78.6278 1.32799 78.6278 2.95999ZM75.6838 5.27999C75.9398 5.27999 76.4198 4.47999 76.4198 2.95999C76.4198 1.42399 75.9398 0.62399 75.6838 0.62399H71.3638V5.27999H75.6838ZM71.3638 5.91999V10.56H75.6838C75.9398 10.56 76.4198 9.75999 76.4198 8.23999C76.4198 6.71999 75.9398 5.91999 75.6838 5.91999H71.3638ZM89.2026 10.56H90.4026V11.2H87.6026H85.9386V10.56H86.8186L85.9226 8.39999H81.5866L80.8186 10.272C80.7866 10.368 80.7866 10.448 80.8186 10.496C80.8506 10.56 80.9306 10.56 80.9786 10.56H81.5706V11.2H78.8186V10.56H79.5226C79.7786 10.56 80.1146 10.32 80.2266 10.064L84.3226 0.0959902L84.3546 -1.04904e-05H84.8506L88.6586 9.24799L87.8906 10.56H89.2026ZM81.8426 7.75999H85.6666L83.7466 3.13599L81.8426 7.75999ZM97.9893 -1.04904e-05C101.077 -1.04904e-05 103.589 2.51199 103.589 5.59999C103.589 7.08799 103.013 8.49599 101.957 9.55199C100.901 10.608 99.4933 11.2 97.9893 11.2H92.0373V10.56H92.6773C92.9013 10.56 93.0933 10.384 93.0933 10.16V1.85599L94.3253 0.62399H92.0373V-1.04904e-05H97.9893ZM95.3013 0.62399V10.56H97.9893C99.8613 10.56 101.381 8.33599 101.381 5.59999C101.381 2.89599 99.8933 0.68799 98.0533 0.62399H97.9893H95.3013ZM8.37188 15.96H8.13388V14.952C7.26588 14.112 6.13188 13.65 4.94188 13.636H4.88588C3.10788 13.636 1.66588 15.722 1.66588 18.298C1.66588 20.86 3.10788 22.96 4.88588 22.96C6.13188 22.96 7.30788 22.47 8.18988 21.588L8.21788 21.546L8.39988 21.714L8.35788 21.756C7.90988 22.204 7.37788 22.568 6.80388 22.806C6.18788 23.058 5.55788 23.198 4.88588 23.198C2.18388 23.198 -0.000119008 21 -0.000119008 18.298C-0.000119008 15.596 2.18388 13.398 4.88588 13.398C5.73988 13.398 6.57988 13.622 7.30788 14.028L7.33588 14.056C7.41988 14.098 7.50388 14.112 7.60188 14.112C7.89588 14.112 8.13388 13.874 8.13388 13.58V13.524V13.398H8.37188V14.854L8.39988 14.868L8.37188 14.896V15.96ZM14.5066 23.198H13.4286H11.9866H10.9226V22.96H11.8746V14.168C11.8746 13.874 11.6366 13.636 11.3426 13.636H10.9226V13.398H11.8746H13.5406H14.5066V13.636H14.0866C13.7786 13.636 13.5406 13.874 13.5406 14.168V21.602L12.1966 22.96H13.5406H14.5066V23.198ZM22.6185 13.398C24.6205 13.398 26.2585 15.022 26.2585 17.024C26.2585 19.026 24.6205 20.664 22.6185 20.664H19.6645V22.414C19.6645 22.708 19.9025 22.96 20.2105 22.96H20.6305V23.198H19.5525H18.1105H17.0465V22.96H17.4665C17.7605 22.96 17.9985 22.722 17.9985 22.428V14.994L19.3565 13.636H18.7125H18.1105H17.0465V13.398H17.9985H19.6645H22.6185ZM22.6185 13.636H19.6645V20.426H22.6185C23.7105 20.426 24.5925 18.9 24.5925 17.024C24.5925 15.162 23.7105 13.636 22.6185 13.636ZM44.2833 21.686V21.28H44.5353V23.198H37.1853H36.4013H35.3373V22.96H36.2893H37.1853H37.6473L36.2893 21.602V14.168C36.2893 13.874 36.0513 13.636 35.7573 13.636H35.3373V13.398H36.2893H37.9553H38.9213V13.636H38.5013C38.1933 13.636 37.9553 13.874 37.9553 14.168V22.96H43.0233C43.7233 22.96 44.2833 22.386 44.2833 21.686ZM51.2417 13.398C53.9437 13.398 56.1417 15.596 56.1417 18.298C56.1417 21 53.9437 23.198 51.2417 23.198C48.5397 23.198 46.3557 21 46.3557 18.298C46.3557 15.596 48.5397 13.398 51.2417 13.398ZM54.4757 18.298C54.4757 15.722 53.0337 13.636 51.2417 13.636C49.4637 13.636 48.0217 15.722 48.0217 18.298C48.0217 20.86 49.4637 22.96 51.2417 22.96C53.0337 22.96 54.4757 20.86 54.4757 18.298ZM66.9357 13.398H67.1737H68.1257V13.636H67.7057C67.4117 13.636 67.1737 13.874 67.1737 14.168V19.068C67.1737 21.35 65.3257 23.198 63.0437 23.198C60.7757 23.198 58.9277 21.35 58.9277 19.068V14.98L60.2717 13.636H57.9757V13.398H58.9277H60.5937H61.5597V13.636H60.5937V19.068C60.5937 21.21 61.6997 22.96 63.0437 22.96H63.0997C65.2137 22.918 66.9357 21.196 66.9357 19.068V14.168C66.9357 13.874 66.6837 13.636 66.3897 13.636H65.9697V13.398H66.9357ZM78.6838 13.398H80.8398V13.636H80.4198C80.1258 13.636 79.8738 13.874 79.8738 14.168V22.96H80.8398V23.198H79.6358H78.0678H76.9478V22.96H77.7878L72.1038 14.196C72.0478 14.112 71.9778 14.028 71.8938 13.958V22.414C71.8938 22.708 72.1318 22.96 72.4258 22.96H72.8458V23.198H70.6898V22.96H71.1098C71.4038 22.96 71.6558 22.708 71.6558 22.414V13.79C71.4878 13.692 71.3198 13.636 71.1798 13.636H70.6758V13.398H71.5858H73.5738H74.5538V13.636H74.2178C74.1338 13.636 74.0218 13.65 73.9798 13.748C73.9238 13.846 73.9518 13.986 74.0498 14.14L78.8658 21.56V21.602L78.3898 22.96H79.6358V14.168C79.6358 13.874 79.3978 13.636 79.1038 13.636H78.6838V13.398ZM91.0643 18.172H92.0303V18.41H90.9523H89.7203L91.0643 19.768V21.7L91.0923 21.714L91.0643 21.742V22.414C91.0643 22.708 91.3023 22.96 91.5963 22.96H92.0303V23.198H90.9523H89.3983V22.848C88.8243 23.072 88.2083 23.198 87.5783 23.198C84.8763 23.198 82.6923 21 82.6923 18.298C82.6923 15.596 84.8763 13.398 87.5783 13.398C88.4323 13.398 89.2723 13.622 90.0003 14.028L90.0283 14.056C90.1123 14.098 90.1963 14.112 90.2943 14.112C90.5883 14.112 90.8263 13.874 90.8263 13.58V13.524V13.398H91.0643V14.854L91.0923 14.868L91.0643 14.896V15.96H90.8263V14.952C89.9583 14.112 88.8243 13.65 87.6343 13.636H87.5783C85.8003 13.636 84.3583 15.722 84.3583 18.298C84.3583 20.86 85.8003 22.96 87.5783 22.96C88.2223 22.96 88.8243 22.834 89.3983 22.582V18.41H88.4323V18.172H89.3983H91.0643ZM97.1627 13.398H103.743V15.316H103.491V14.91C103.491 14.21 102.931 13.636 102.231 13.636H97.1627V18.172H98.9547C99.2627 18.172 99.5007 17.92 99.5007 17.626V17.206H99.7387V19.362H99.5007V18.942C99.5007 18.648 99.2627 18.41 98.9547 18.41H97.1627V22.96H102.231C102.931 22.96 103.491 22.386 103.491 21.686V21.28H103.743V23.198H96.3927H95.6087H94.5447V22.96H95.4967H96.3927H96.8547L95.4967 21.602V14.168C95.4967 13.874 95.2587 13.636 94.9647 13.636H94.5447V13.398H95.4967H97.1627Z" fill="white"/>
</svg>
