<svg width="435" height="23" viewBox="0 0 435 23" fill="none" xmlns="http://www.w3.org/2000/svg">
<path d="M24.1924 -2.09808e-05H26.3044V1.24798H24.9924C24.5444 1.24798 24.1924 1.63198 24.1924 2.07998V18.656L21.7284 21.12H23.2004H26.3044V22.4H23.2004H20.7364H17.6324V21.12H19.7764V3.71198L12.0644 22.4H11.1044L3.42439 3.77598V20.288C3.42439 20.768 3.80839 21.12 4.25639 21.12H5.56839V22.4H0.0323907V21.12H1.34439C1.79239 21.12 2.17639 20.768 2.17639 20.288V1.53598C1.92039 1.37598 1.63239 1.24798 1.40839 1.24798H0.000390649V-2.09808e-05H8.92839V1.24798H7.74439C7.64839 1.24798 7.48839 1.27998 7.42439 1.40798C7.32839 1.50398 7.36039 1.69598 7.42439 1.88798L13.3124 16.096L19.3604 1.37598C19.2324 1.31198 19.1044 1.24798 18.9444 1.24798H17.6324V-2.09808e-05H20.2564H20.7364H24.1924ZM29.5316 -2.09808e-05H31.6436H50.5876V4.95998H49.3076V3.71198C49.3076 2.36798 48.2196 1.24798 46.8756 1.24798H36.0596V10.56H39.6756C40.1236 10.56 40.4756 10.176 40.4756 9.72798V8.41598H41.7556V13.92H40.4756V12.64C40.4756 12.16 40.1236 11.808 39.6756 11.808H36.0596V21.12H46.8756C48.2196 21.12 49.3076 20.032 49.3076 18.688V17.408H50.5876V22.4H32.6036H29.5316V21.12H31.6436H33.7876H34.1076L31.6436 18.656V2.07998C31.6436 1.63198 31.2596 1.24798 30.8116 1.24798H29.5316V-2.09808e-05ZM74.8689 -2.09808e-05H76.9809V1.24798H75.6689C75.2209 1.24798 74.8689 1.63198 74.8689 2.07998V21.12H76.9809V22.4H73.8769H71.4129H68.3089V21.12H70.4529H72.9169L70.4529 18.656V11.808H60.3409V20.288C60.3409 20.768 60.6929 21.12 61.1729 21.12H62.4529V22.4H59.3489H56.8849H53.8129V21.12H55.0929C55.5409 21.12 55.9249 20.768 55.9249 20.288V1.24798H53.8129V-2.09808e-05H55.9249H60.3409H62.4529V1.24798H59.3489H57.8769L60.3409 3.71198V10.56H70.4529V2.07998C70.4529 1.63198 70.0689 1.24798 69.6209 1.24798H68.3089V-2.09808e-05H70.4529H74.8689ZM100.218 20.032C100.602 20.608 101.402 21.12 101.946 21.12H103.45V22.4H94.1384L94.1064 21.12H95.2584C95.3864 21.12 95.4504 21.088 95.4504 21.088C95.4824 21.024 95.4824 20.832 95.2904 20.576L92.8264 16.8H86.7784V18.656L84.3144 21.12H88.8904V22.4H80.2504V21.12H82.3624V2.07998C82.3624 1.63198 81.9784 1.24798 81.5304 1.24798H80.2504V-2.09808e-05H92.9224C97.5624 -2.09808e-05 101.338 3.77598 101.338 8.38398C101.338 11.328 99.8024 14.048 97.3064 15.552L100.218 20.032ZM95.4504 13.92C96.3784 12.544 96.9224 10.528 96.9224 8.38398C96.9224 4.51198 95.0984 1.24798 92.9224 1.24798H86.7784V15.52H92.9224C93.8504 15.52 94.7144 14.944 95.4504 13.92ZM127.456 21.12H129.856V22.4H124.256H120.928V21.12H122.688L120.896 16.8H112.224L110.688 20.544C110.624 20.736 110.624 20.896 110.688 20.992C110.752 21.12 110.912 21.12 111.008 21.12H112.192V22.4H106.688V21.12H108.096C108.608 21.12 109.28 20.64 109.504 20.128L117.696 0.19198L117.76 -2.09808e-05H118.752L126.368 18.496L124.832 21.12H127.456ZM112.736 15.52H120.384L116.544 6.27198L112.736 15.52ZM154.181 5.91998C154.181 8.19198 152.901 10.208 150.949 11.2C152.901 12.16 154.181 14.176 154.181 16.48C154.181 19.744 151.525 22.4 148.293 22.4H133.125V21.12H135.237H137.573H137.701L135.237 18.656V2.07998C135.237 1.63198 134.853 1.24798 134.405 1.24798H133.125V-2.09808e-05H135.237H148.293C151.525 -2.09808e-05 154.181 2.65598 154.181 5.91998ZM148.293 10.56C148.805 10.56 149.765 8.95998 149.765 5.91998C149.765 2.84798 148.805 1.24798 148.293 1.24798H139.653V10.56H148.293ZM139.653 11.84V21.12H148.293C148.805 21.12 149.765 19.52 149.765 16.48C149.765 13.44 148.805 11.84 148.293 11.84H139.653ZM175.331 21.12H177.731V22.4H172.131H168.803V21.12H170.563L168.771 16.8H160.099L158.563 20.544C158.499 20.736 158.499 20.896 158.563 20.992C158.627 21.12 158.787 21.12 158.883 21.12H160.067V22.4H154.563V21.12H155.971C156.483 21.12 157.155 20.64 157.379 20.128L165.571 0.19198L165.635 -2.09808e-05H166.627L174.243 18.496L172.707 21.12H175.331ZM160.611 15.52H168.259L164.419 6.27198L160.611 15.52ZM192.904 -2.09808e-05C199.08 -2.09808e-05 204.104 5.02398 204.104 11.2C204.104 14.176 202.952 16.992 200.84 19.104C198.728 21.216 195.912 22.4 192.904 22.4H181V21.12H182.28C182.728 21.12 183.112 20.768 183.112 20.32V3.71198L185.576 1.24798H181V-2.09808e-05H192.904ZM187.528 1.24798V21.12H192.904C196.648 21.12 199.688 16.672 199.688 11.2C199.688 5.79198 196.712 1.37598 193.032 1.24798H192.904H187.528ZM238.052 18.208L238.404 17.856L239.268 18.752L238.948 19.104C237.924 20.128 236.708 20.928 235.396 21.504C233.988 22.08 232.548 22.4 231.012 22.4C224.836 22.4 219.844 17.376 219.844 11.2C219.844 5.02398 224.836 -2.09808e-05 231.012 -2.09808e-05C232.964 -2.09808e-05 234.916 0.51198 236.612 1.47198V1.50398C236.74 1.56798 236.868 1.59998 236.996 1.59998C237.444 1.59998 237.828 1.21598 237.828 0.767981V-2.09808e-05H239.076V6.39998H237.828V3.96798C236.004 2.27198 233.668 1.31198 231.204 1.24798H231.012C227.3 1.24798 224.26 5.72798 224.26 11.2C224.26 16.672 227.3 21.12 231.012 21.12C233.668 21.12 236.164 20.096 238.052 18.208ZM251.14 21.12V22.4H248.036H245.572H242.5V21.12H244.612V2.07998C244.612 1.63198 244.228 1.24798 243.78 1.24798H242.5V-2.09808e-05H244.612H249.028H251.14V1.24798H249.86C249.38 1.24798 249.028 1.63198 249.028 2.07998V18.656L246.564 21.12H249.028H251.14ZM267.079 -2.09808e-05C271.719 -2.09808e-05 275.495 3.77598 275.495 8.38398C275.495 13.024 271.719 16.8 267.079 16.8H260.935V20.32C260.935 20.768 261.287 21.12 261.767 21.12H263.047V22.4H254.407V21.12H255.687C256.135 21.12 256.519 20.768 256.519 20.32V3.74398L258.983 1.24798H254.407V-2.09808e-05H267.079ZM260.935 1.24798V15.52H267.079C269.255 15.52 271.079 12.256 271.079 8.38398C271.079 4.51198 269.255 1.24798 267.079 1.24798H260.935ZM310.933 18.688V17.408H312.213V22.4H294.229H291.157V21.12H293.269H295.413H295.733L293.269 18.656V2.07998C293.269 1.63198 292.885 1.24798 292.437 1.24798H291.157V-2.09808e-05H293.269H297.685H299.797V1.24798H298.517C298.037 1.24798 297.685 1.63198 297.685 2.07998V21.12H308.501C309.845 21.12 310.933 20.032 310.933 18.688ZM325.012 -2.09808e-05C331.188 -2.09808e-05 336.212 5.02398 336.212 11.2C336.212 17.376 331.188 22.4 325.012 22.4C318.836 22.4 313.844 17.376 313.844 11.2C313.844 5.02398 318.836 -2.09808e-05 325.012 -2.09808e-05ZM325.012 1.24798C321.3 1.24798 318.26 5.72798 318.26 11.2C318.26 16.672 321.3 21.12 325.012 21.12C328.756 21.12 331.796 16.672 331.796 11.2C331.796 5.72798 328.756 1.24798 325.012 1.24798ZM358.9 -2.09808e-05H361.012V1.24798H359.732C359.252 1.24798 358.9 1.63198 358.9 2.07998V12.928C358.9 18.144 354.644 22.4 349.428 22.4C344.212 22.4 339.956 18.144 339.956 12.928V3.71198L342.42 1.24798H337.844V-2.09808e-05H344.372H346.484V1.24798H344.372L344.34 12.928C344.34 17.44 346.644 21.12 349.428 21.12H349.62C354.068 21.024 357.652 17.376 357.652 12.928V2.07998C357.62 1.63198 357.268 1.24798 356.82 1.24798H355.508V-2.09808e-05H358.9ZM383.29 1.24798H381.978V-2.09808e-05H387.482V1.24798H386.17C385.722 1.24798 385.37 1.63198 385.37 2.07998V21.12H387.482V22.4H378.17L378.138 21.12H379.674L367.706 2.65598V20.288C367.706 20.768 368.058 21.12 368.506 21.12H369.818V22.4H364.314V21.12H365.626C366.074 21.12 366.426 20.768 366.426 20.288V1.43998C366.202 1.31198 365.946 1.24798 365.754 1.24798H364.282V-2.09808e-05H371.226H371.258H373.594V1.24798H372.474C372.346 1.24798 372.282 1.31198 372.25 1.31198C372.218 1.34398 372.25 1.53598 372.41 1.82398L383.13 18.304V18.528L383.098 18.624L382.202 21.12H384.09V2.07998C384.09 1.63198 383.738 1.24798 383.29 1.24798ZM403.973 11.808H401.861V10.56H410.533V11.808H405.925L408.389 14.272V20.32C408.389 20.768 408.773 21.12 409.221 21.12H410.533V22.4H403.973V21.792C402.821 22.176 401.573 22.4 400.325 22.4C394.149 22.4 389.157 17.376 389.157 11.2C389.157 5.02398 394.149 -2.09808e-05 400.325 -2.09808e-05C402.277 -2.09808e-05 404.229 0.51198 405.925 1.47198V1.50398C406.053 1.56798 406.181 1.59998 406.309 1.59998C406.757 1.59998 407.141 1.21598 407.141 0.767981V-2.09808e-05H408.389V6.39998H407.141V3.96798C405.317 2.27198 402.981 1.31198 400.517 1.24798H400.325C396.613 1.24798 393.573 5.72798 393.573 11.2C393.573 16.672 396.613 21.12 400.325 21.12C401.605 21.12 402.821 20.896 403.973 20.448V11.808ZM413.719 -2.09808e-05H415.831H434.775V4.95998H433.495V3.71198C433.495 2.36798 432.407 1.24798 431.063 1.24798H420.247V10.56H423.863C424.311 10.56 424.663 10.176 424.663 9.72798V8.41598H425.943V13.92H424.663V12.64C424.663 12.16 424.311 11.808 423.863 11.808H420.247V21.12H431.063C432.407 21.12 433.495 20.032 433.495 18.688V17.408H434.775V22.4H416.791H413.719V21.12H415.831H417.975H418.295L415.831 18.656V2.07998C415.831 1.63198 415.447 1.24798 414.999 1.24798H413.719V-2.09808e-05Z" fill="#F2E9E4"/>
</svg>
