<svg width="181" height="21" viewBox="0 0 181 21" fill="none" xmlns="http://www.w3.org/2000/svg">
<path d="M0.13961 14.44L-0.000390619 13H3.01961C4.65961 13 5.45961 12.58 5.91961 11.78L5.49961 9.48C5.33961 8.64 4.87961 7.9 4.19961 7.4L2.17961 5.92L2.77961 4.72L4.83961 6.24C5.85961 7 6.49961 8.04 6.71961 9.32L6.95961 10.7C7.21961 12.2 6.37961 14.44 3.09961 14.44H0.13961ZM12.4788 14.44C10.4988 14.44 9.19883 13.34 9.19883 11.18V3.02L10.3588 2.7V10.8C10.3588 12.36 11.1188 13 12.4788 13H14.1588C15.5588 13 16.3588 12.58 16.8188 11.82L15.7188 6L16.9188 5.46L17.8388 10.28C18.3188 12.78 16.9788 14.44 14.2388 14.44H12.4788ZM12.3588 18.72V17H14.1988V18.72H12.3588ZM19.3265 4.14L18.1865 3.72V3.48C18.1865 2.66 18.7865 2.06 19.6065 2.06H23.6265L23.2465 3.2H19.3265V4.14ZM20.5465 14.62V5.22L21.7065 4.9V14.3L20.5465 14.62ZM23.1713 18.4L22.7113 17.18L25.5113 16.06L26.3313 15.72V7.2L27.4913 6.98V11.1C27.4913 12.36 28.2913 13 29.2513 13H30.3913C30.7113 13 30.9713 13.3 30.9713 13.72C30.9713 14.12 30.7113 14.44 30.3913 14.44H29.2513C28.5313 14.44 27.9313 14.2 27.4913 13.82V14.94C27.4913 16.02 26.8913 16.9 25.8913 17.3L23.1713 18.4ZM37.917 19.44L35.297 18.78C33.717 18.38 32.657 17.3 32.657 15.7V14.4L30.357 14.44C30.037 14.44 29.777 14.12 29.777 13.72C29.777 13.32 30.037 13 30.357 13H32.657V8.64C32.657 8.18 32.837 7.78 33.177 7.44L34.037 6.58H36.797C38.357 6.58 40.337 7.58 39.797 10L39.137 13H41.377C41.697 13 41.957 13.32 41.957 13.72C41.957 14.12 41.697 14.44 41.377 14.44H39.017V17.6C39.017 17.94 38.877 18.3 38.637 18.58L37.917 19.44ZM33.817 13.02L37.997 13L38.557 10.32C38.937 8.54 37.757 7.84 36.777 7.84H33.817V13.02ZM37.837 18.06V14.44H33.817V15.54C33.817 16.52 34.477 17.22 35.437 17.46L37.837 18.06ZM49.9135 14.78L45.2335 13.82C44.7335 13.7 44.3935 13.6 44.1335 13.22C43.5335 14.02 42.5735 14.44 41.5535 14.44H41.3335C41.0135 14.44 40.7535 14.12 40.7535 13.72C40.7535 13.32 41.0135 13 41.3335 13H41.6935C42.7535 13 43.3735 12.48 43.7735 11.12L44.9335 7.26C45.0935 6.76 45.2535 6.34 45.6535 5.98L46.1735 5.5L48.1735 6.04C49.9535 6.52 50.9735 8.02 51.1135 9.86L51.3135 12.6C51.3535 13.26 51.0735 13.84 50.5535 14.26L49.9135 14.78ZM50.1735 13.4L49.9335 9.98C49.8335 8.7 49.1735 7.7 47.9735 7.38L46.2135 6.9L44.6135 12.26L50.1735 13.4ZM56.2729 10.44L57.1129 7.06L56.3729 6.88L56.6129 5.6L60.4129 6.6C61.9129 7 62.6129 7.82 62.8729 9.52L63.0529 10.7C63.2929 12.22 62.4129 14.44 59.3129 14.44H58.6329C56.7329 14.44 55.6729 12.8 56.2729 10.44ZM57.2129 10.82C56.8929 12.08 57.5929 13 58.7729 13H59.2729C60.7129 13 61.5329 12.58 61.9929 11.78L61.6729 9.74C61.5129 8.68 60.9929 8.04 60.0929 7.82L58.0929 7.32L57.2129 10.82ZM67.7926 5.38L67.3726 4.48L69.9926 1.96L70.4326 2.86L67.7926 5.38ZM68.5726 14.44C66.5926 14.44 65.2926 13.34 65.2926 11.18V3.02L66.4526 2.7V10.8C66.4526 12.36 67.2126 13 68.5726 13H72.6326C74.0926 13 74.8926 12.56 75.3326 11.76L75.0726 10.08C74.8526 8.76 74.0726 8.04 72.8126 8.04H69.0526L68.1326 6.08L72.3526 2.02L72.8926 3.2L69.2526 6.72H72.6126C74.5926 6.72 75.8726 7.82 76.1726 9.5L76.3526 10.48C76.7526 12.68 75.3726 14.44 72.7126 14.44H68.5726ZM78.2451 14.44L78.1051 13H81.1251C82.7651 13 83.5651 12.58 84.0251 11.78L83.6051 9.48C83.4451 8.64 82.9851 7.9 82.3051 7.4L80.2851 5.92L80.8851 4.72L82.9451 6.24C83.9651 7 84.6051 8.04 84.8251 9.32L85.0651 10.7C85.3251 12.2 84.4851 14.44 81.2051 14.44H78.2451ZM94.0043 6C94.3243 6.28 94.4843 6.64 94.4843 7.04V14.84C94.4843 15.86 93.8643 16.76 92.8843 17.1L89.2843 18.36L88.8043 17.12L92.3843 15.88C92.7043 15.76 93.0243 15.66 93.3443 15.54V14.44H93.0443H92.3443H89.5643C88.6243 14.44 87.8643 13.84 87.7243 12.88L87.3843 10.62C87.0243 8.2 88.0443 6.52 90.3643 6.02L93.2843 5.4L94.0043 6ZM88.9843 13H93.3443V6.76L90.6043 7.34C88.9043 7.7 88.3443 8.56 88.6043 10.38L88.9843 13ZM95.5541 18.4L95.0941 17.18L97.8941 16.06L98.7141 15.72V7.2L99.8741 6.98V11.1C99.8741 12.36 100.674 13 101.634 13H102.774C103.094 13 103.354 13.3 103.354 13.72C103.354 14.12 103.094 14.44 102.774 14.44H101.634C100.914 14.44 100.314 14.2 99.8741 13.82V14.94C99.8741 16.02 99.2741 16.9 98.2741 17.3L95.5541 18.4ZM106.38 1.72V1.19209e-06H108.22V1.72H106.38ZM102.74 14.44C102.42 14.44 102.16 14.12 102.16 13.72C102.16 13.3 102.42 13 102.74 13H108.96H109.72V11.34H109.5H109.18H105.86C104.92 11.34 104.1 10.74 103.96 9.78L103.76 8.48C103.38 6.06 104.42 4.4 106.74 3.9L109.68 3.26L110.38 3.86C110.7 4.12 110.86 4.5 110.86 4.92V12.4C110.86 13.58 110 14.44 108.82 14.44H102.74ZM105.24 9.9H109.72V4.62L106.98 5.22C105.28 5.6 104.68 6.42 104.98 8.26L105.24 9.9ZM119.904 18.7C116.644 18.7 115.064 16.62 115.824 13.2L116.424 10.48H117.544L116.944 13.3C116.384 15.9 117.424 17.26 119.844 17.26H120.884C122.604 17.26 123.544 16.78 124.124 15.88L123.944 14.44H120.204L120.364 13H126.364C126.684 13 126.944 13.3 126.944 13.72C126.944 14.12 126.684 14.44 126.364 14.44H125.144L125.204 14.78C125.404 16.56 124.284 18.7 120.924 18.7H119.904ZM126.334 14.44C126.014 14.44 125.754 14.12 125.754 13.72C125.754 13.3 126.014 13 126.334 13H127.954C129.354 13 130.154 12.58 130.614 11.82L129.514 6L130.714 5.46L131.634 10.28C132.114 12.78 130.774 14.44 128.034 14.44H126.334ZM126.394 17H130.614V18.38H126.394V17ZM129.354 19.12V20.72H127.654V19.12H129.354ZM140.783 18.28C137.523 18.28 135.943 16.2 136.703 12.78L137.183 10.64H138.303L137.823 12.88C137.263 15.48 138.303 16.84 140.723 16.84H141.963C143.803 16.84 144.743 16.28 145.323 15.46L145.183 14.44H141.983C140.743 14.44 140.083 13.46 140.243 12.24L140.763 8.18C140.883 7.12 141.543 5.9 142.863 5.56L144.183 5.22L144.583 6.38L143.043 6.78C142.423 6.94 142.003 7.42 141.923 8.04L141.303 13H144.523C145.483 13 146.143 13.58 146.243 14.68L146.283 15.1C146.383 16.2 145.283 18.28 142.123 18.28H140.783ZM148.194 4.14L147.054 3.72V3.48C147.054 2.66 147.654 2.06 148.474 2.06H152.494L152.114 3.2H148.194V4.14ZM149.414 14.62V5.22L150.574 4.9V14.3L149.414 14.62ZM159.631 18.7C156.371 18.7 154.791 16.62 155.551 13.2L156.151 10.48H157.271L156.671 13.3C156.111 15.9 157.151 17.26 159.571 17.26H160.611C162.331 17.26 163.271 16.78 163.851 15.88L163.671 14.44H159.931L160.091 13H166.091C166.411 13 166.671 13.3 166.671 13.72C166.671 14.12 166.411 14.44 166.091 14.44H164.871L164.931 14.78C165.131 16.56 164.011 18.7 160.651 18.7H159.631ZM179.2 14.76L175.08 13.66C174.56 14.18 173.84 14.44 173.04 14.44H166.06C165.74 14.44 165.48 14.12 165.48 13.72C165.48 13.3 165.74 13 166.06 13H168.86V7.8L170.02 7.54V13H173.2C174.08 13 174.6 12.36 174.6 11.5V9.08H175.78V11.74C175.78 11.96 175.74 12.2 175.72 12.4L179.34 13.34L178.08 6.46L179.26 5.86L180.4 12.32C180.5 12.88 180.42 13.34 179.94 13.9L179.2 14.76Z" fill="#F2E9E4"/>
</svg>
