<svg width="40" height="40" viewBox="0 0 40 40" fill="none" xmlns="http://www.w3.org/2000/svg">
<rect width="40" height="40" fill="#1E1E1E"/>
<g id="Desktop - 7">
<rect width="1440" height="3046" transform="translate(-1304 -48)" fill="black"/>
<g id="Group 13166">
<path id="Vector" d="M15.4769 0.588867C16.9046 6.40201 21.2947 10.8902 25.6907 14.7596C23.9096 13.8219 22.1633 12.7898 20.5264 11.6239C17.1125 9.19253 13.5363 5.77173 13.7598 1.27923C13.6556 1.33211 13.6263 1.51041 13.5971 1.61545C12.7235 4.7545 15.1627 8.42108 17.1514 10.7033C19.5229 13.4251 22.4401 15.7007 25.4397 17.7235L29.3018 20.0429C26.0061 19.1789 22.629 18.1521 19.6149 16.5718C17.018 15.2104 14.2206 13.1702 13.6276 10.1654C13.5508 10.1554 13.5862 10.2634 13.5841 10.3157C13.528 11.651 14.2538 13.1504 15.001 14.2336C17.9455 18.5014 24.644 21.7307 29.5431 23.2794L32.6476 24.163C32.3508 24.2097 32.0453 24.1736 31.7457 24.1848C27.5291 24.3424 23.0177 24.0141 19.3553 21.7867C17.8952 20.8987 16.6327 19.7274 15.6311 18.3612C15.6578 18.7151 15.8227 19.0878 15.9678 19.4117C17.7222 23.3263 23.1378 25.3637 27.1083 26.2686C29.6912 26.8572 32.3924 27.1881 35.0454 27.2919C35.5366 27.3111 36.0383 27.2432 36.5222 27.3337C36.5119 27.3977 36.4389 27.4142 36.3911 27.442C34.7646 28.3895 32.3726 29.0663 30.5052 29.3534C26.6984 29.9386 21.9856 29.5859 19.0212 26.9452C18.9884 26.9383 18.9917 26.9891 18.9999 27.0089C19.0276 27.0754 19.3014 27.3841 19.373 27.4631C21.3131 29.605 24.1983 30.7883 27.0471 31.2459C30.6205 31.8199 34.4 31.4063 37.7985 30.2232L37.2493 30.9571C34.3512 33.9514 29.9722 34.8949 25.956 35.5295C25.9455 35.6044 26.0562 35.5701 26.1094 35.5721C28.0664 35.6436 29.9823 35.4618 31.8553 34.9034L34.7609 33.9543C33.5041 35.0509 32.1777 36.0907 30.751 36.9703C16.4313 45.7992 -1.58951 34.0886 0.112061 17.8652C0.978857 9.6007 7.2492 2.54541 15.4769 0.588867Z" fill="white"/>
<path id="Vector_2" d="M39.9996 14.4788C33.4866 13.3196 28.1 9.43794 24.8911 3.81007C24.3822 2.91767 23.5888 1.44349 23.3117 0.483167C23.2845 0.388984 23.2542 0.301276 23.2699 0.20105C31.1198 1.21691 37.9079 7.00711 39.9996 14.4788Z" fill="white"/>
<path id="Vector_3" d="M21.2014 0.0280489C21.234 0.482846 21.3398 0.961027 21.4428 1.40913C22.1106 4.31376 23.3211 7.08226 25.0396 9.53181C25.4264 10.083 25.879 10.5993 26.2427 11.1564C22.2228 8.36024 18.3408 4.94656 16.4463 0.37377C18.0097 0.0993516 19.6119 -0.0698753 21.2014 0.027977L21.2014 0.0280489Z" fill="white"/>
</g>
</g>
</svg>
