<svg preserveAspectRatio="none" width="100%" height="100%" overflow="visible" style="display: block;" viewBox="0 0 267 241" fill="none" xmlns="http://www.w3.org/2000/svg">
<g id="Iran Vector 2">
<path id="Vector" d="M266.528 206.429L266.315 206.12L266.173 205.954L266.055 205.859L265.701 205.74L265.558 205.622L265.181 205.289L265.015 205.218H264.874L264.117 205.455L263.952 205.479L263.716 205.455H263.338L262.629 205.693L262.251 205.764L261.448 205.93L261.069 205.954L260.645 205.859L260.314 205.669L260.195 205.622L260.101 205.645L259.912 205.764H259.818L259.605 205.645L259.014 205.075H259.227L259.369 204.957L259.44 204.766L259.51 204.529L259.533 204.268L259.463 204.102L259.203 203.746L259.912 202.012L260.006 201.324L259.533 195.839L258.92 193.132L259.345 189.595L259.274 189.001L258.967 188.811L256.698 189.286L256.415 189.12L255.541 188.122L255.352 187.766L255.258 187.481L255.163 187.315L255.021 187.22L254.785 187.149L254.549 187.006L254.407 186.816L254.289 186.579L254.147 186.389L253.745 186.175L251.926 185.796L250.769 185.249L250.344 185.154L249.422 185.083L248.997 184.94L248.335 184.537L247.508 184.3L247.248 184.157L246.823 183.634L245.948 182.78L245.358 181.997L243.94 180.643L243.539 180.144L243.138 179.242L242.736 178.767L242.665 178.53L242.641 178.245L242.547 177.936L241.98 176.536L241.862 176.369L241.696 176.227L241.507 176.155L241.413 176.061L241.389 175.965L241.413 175.87L241.507 175.752L241.649 175.633L241.696 175.467L241.649 175.324L241.507 175.23L241.271 175.111L241.176 174.873L241.105 174.588L240.964 174.351L240.799 174.28L240.68 174.256L240.562 174.208L240.421 174.042L240.349 173.852L240.302 173.449L240.255 173.259L240.09 172.974L239.641 172.475L239.499 172.143V171.834L239.664 171.24L239.687 170.932L239.569 170.504L239.333 170.338L239.05 170.219L238.767 169.982L234.608 164.83L232.766 162.574L234.608 160.342L241.295 152.15L245.76 146.618L245.996 146.357L245.973 146.262H245.948L245.973 145.953L245.996 145.835L246.091 145.787L246.043 144.671L245.973 144.481L246.233 143.959L246.327 143.603V143.294L246.28 142.962L246.091 142.415L245.855 141.893L245.83 141.727L245.807 141.252L245.689 140.872L245.311 140.255L245.169 139.922V139.59L245.264 138.902L245.169 138.593L244.673 137.952L244.413 137.738L244.058 137.596L236.64 136.479L232.907 135.934L232.435 135.743L232.27 134.2L232.08 133.416L232.033 133.037L232.222 131.802L232.033 130.306L231.986 129.499L232.104 128.478L232.08 128.122L232.009 127.955L231.939 127.789L231.915 127.623L232.033 127.267L231.962 127.172L231.844 127.101L231.797 127.005L231.891 126.745L232.27 126.293L232.34 126.008L232.529 124.703L232.553 123.373L231.49 119.336L229.056 111.145L228.867 110.1L228.844 108.794L228.914 108.58L231.536 105.042L231.939 104.686L232.411 104.402L232.553 104.211L232.624 103.903L232.6 103.618L232.553 103.333L232.576 103.096L232.836 102.953L233.498 102.905L233.687 102.834L233.805 102.621L233.687 102.384L233.451 102.17L233.238 102.051L232.789 101.932L232.245 101.885L231.23 101.956L230.143 101.861L229.033 101.41L228.159 100.579L227.804 99.3916L227.922 98.8455L228.347 97.8958L228.371 97.2547L227.993 94.7381L227.828 93.337L227.804 93.0995L227.899 92.3637L228.277 91.6037L228.726 91.0338L229.198 90.5352L229.859 90.2028L230.072 89.9653L229.978 89.6092L233.403 89.4192L233.238 89.1106L232.198 87.8046L231.986 87.3775L231.868 87.1875L231.679 87.0448L231.348 86.8786L231.23 86.7599L231.112 86.38L231.017 86.2613L230.899 86.1903H230.757L230.946 85.8341L231.3 85.6677L232.057 85.5727L232.411 85.478L232.671 85.288L233.308 84.5757L233.38 84.457L233.451 84.3383L233.64 84.2431L233.829 84.2196H234.017L234.183 84.1956L234.325 84.0056L234.372 83.602L234.325 83.1746L234.348 82.7949L234.608 82.51L235.034 82.1774L235.317 81.7025L235.388 81.4176L235.813 81.2751L235.932 80.7527L235.979 80.1591V80.0169L235.907 79.7082V79.542L235.932 79.3521L236.144 79.0432L236.192 78.8772L236.215 78.5683L236.428 77.951L236.498 77.2624L236.616 77.025L236.947 76.5741L236.806 76.4314L236.782 76.2889L236.806 76.1467L236.829 75.9565L236.806 75.8852L236.31 75.2442L236.239 75.0782L236.333 75.0067L236.451 74.9355L236.475 74.7693L236.404 74.6268L236.333 74.5558L236.31 74.3894L236.333 74.0332L236.404 73.7008L236.593 73.5348H236.9L237.231 73.4634L237.491 73.3209L237.609 73.036L237.538 72.1814L237.609 71.8488L237.679 71.6588L237.963 71.2792L238.058 71.113L238.176 70.6141L238.318 70.2819L238.649 69.9018L238.837 69.5931L238.909 69.261L238.885 68.9283L238.742 68.2637L238.624 68.0973L238.294 67.5989L238.105 67.2188L238.082 66.7914L238.129 66.6964L238.318 66.5064L238.365 66.3877L238.341 66.1028L238.365 66.0078L238.459 65.6279V65.4617L238.365 65.343L238.459 64.9868L238.436 64.7019L238.388 64.4645L238.318 63.8709L238.247 63.586L238.129 63.3248L237.963 63.0873L237.751 62.8261L237.514 62.6125L237.231 62.47L236.9 62.4225L236.711 62.3275L236.852 62.1376L237.137 61.9239L237.302 61.7339L237.325 61.5915L237.278 61.2591L237.302 61.0691L237.396 60.9741L237.538 60.9266L237.656 60.8554L237.704 60.6655V60.523L237.727 60.3568L237.774 60.2143L237.845 60.0956L237.987 59.9294L238.01 59.8107L237.987 59.7394L237.963 59.2408L237.751 58.2198L237.538 57.9112L237.491 57.745V57.3651L237.467 57.1989L237.42 57.0089L237.349 56.9139L237.278 56.819L237.16 56.7477L237.042 56.6765L237.065 56.5578L237.089 56.534L237.137 56.4628L236.924 55.9879L237.018 55.1806L237.302 53.8747L237.231 53.6135L237.207 53.4236L237.278 53.2574L237.349 53.1149L237.42 52.9725L237.491 52.7825V52.5688V52.3789L237.42 52.2127L237.302 51.9752L237.207 51.4054L236.64 51.3341L235.955 51.2154L225.819 51.4054L225.347 51.1442L225.064 50.6693L224.662 49.6721L224.378 49.2209L222.913 47.5351L222.275 46.5854L221.756 45.5406L221.33 45.0183L220.834 44.8046L219.677 44.6146L219.181 44.3297L218.283 43.6174L216.274 43.0001L216.133 42.9763L216.014 43.0475L215.849 43.285L215.755 43.38L215.613 43.4037L215.424 43.285L215.329 43.0001L215.259 42.6914L215.164 42.4302L214.928 42.1928L214.739 42.169L214.289 42.3352H214.171L214.053 42.264L213.959 42.1928L213.865 42.0978L213.628 42.0503L213.605 41.9316L213.628 41.7891L213.652 41.6704L213.675 41.6229L213.723 41.5754L213.747 41.5042L213.652 41.3855L213.392 41.1243L212.542 40.4357L212.376 40.1983L212.093 39.0823L212.069 38.7262L212.116 38.56L212.187 38.3938L212.258 38.2513L212.211 38.1088L212.14 37.9189L212.163 37.5627L212.116 37.349L211.833 36.9929L211.572 36.7554L211.242 36.6605L210.462 37.0166L210.179 36.9691L208.336 35.7344L207.887 35.2833L207.722 35.2121L207.32 35.1409L207.131 35.0934L206.942 34.9509L206.399 34.7135L205.336 34.4998L204.484 34.0486L204.414 34.1674L204.391 34.4048L204.201 34.6185L204.06 34.666L203.918 34.6897L203.611 34.6422H203.469L203.374 34.7135L203.28 34.8084L203.162 34.8797L202.855 34.9034L202.524 34.8559L201.934 34.6422L201.248 34.0486L201.012 33.9299L200.752 33.9537L200.539 34.0961L200.374 34.3336L200.232 34.6185L200.043 34.8797L199.807 34.9984L198.555 35.1171L198.366 35.0696L198.012 34.8084L197.822 34.7372L196.759 34.5947L196.523 34.4998L196.287 34.3098L196.215 34.1199V33.9062L196.168 33.5975L196.121 33.4788L195.909 33.0989L195.885 32.9802L195.932 32.8614V32.7427L195.814 32.624L195.578 32.529L195.365 32.4815L194.893 32.4341L193.995 32.2441L191.821 31.2469L191.325 31.1281L191.112 31.1519L190.876 31.1994L190.64 31.2231L190.451 31.1281L190.357 31.0332L190.239 30.7957L190.144 30.7008L190.026 30.677L189.789 30.7245H189.766L189.671 30.7008L189.506 30.6058L189.341 30.4633L189.152 30.3446H188.939L188.726 30.3921L188.064 30.4158L187.355 30.2259L187.119 30.2021L186.883 30.2259L186.671 30.2971L186.458 30.3209L184.45 29.5848L184.119 29.1337L184.379 28.2789L184.426 27.994L184.355 27.709L184.048 27.3291L183.883 26.8305L183.434 26.3794L183.269 26.1419L183.033 25.5721L182.702 25.0735L182.655 24.931V24.8123L182.607 24.6936L182.465 24.5986L182.158 24.5036H182.016H181.851L181.615 24.6223L181.449 24.7885L181.166 25.2397L181.001 25.4059L180.552 25.6908L180.363 25.8333L180.126 25.9757L179.843 25.9282L179.276 25.7146L177.196 25.3584L176.984 25.2872L176.512 25.026L175.968 24.6223L175.85 24.5986L175.188 24.7173L174.078 25.1684L173.842 25.1922L173.677 25.121L173.487 24.9785L173.298 24.8835L173.062 24.836L171.786 24.8598L171.29 25.0497L170.817 25.3584L169.943 26.0945L169.872 26.3319L170.251 26.7355L170.298 27.0205L170.251 27.3291L170.108 27.5903L169.896 27.7328L168.715 27.9227L168.502 27.899L168.077 27.7328L168.006 27.6853L167.439 27.6378L165.454 27.9702L165.242 27.9465L165.053 27.899L164.674 27.709L164.438 27.6378H163.729L163.541 27.5666L162.997 27.2816L162.147 27.0917H161.721L159.004 27.6378L158.107 27.6853L157.776 27.804L156.759 28.5401L156.453 28.6825L156.169 28.8962L156.028 28.92L155.39 29.1337L155.083 29.2761L154.964 29.5373L154.799 29.6085L153.996 29.751L153.736 29.8222L153.618 29.9647L153.452 30.2496L153.358 30.3683L153.216 30.4396L153.027 30.4633L152.838 30.5583L152.767 30.772L152.673 30.9382L152.011 31.6268L149.932 32.9564L149.53 33.3838L149.342 33.6687L149.27 33.9299L149.223 34.2386L148.987 34.7609L149.011 35.0934L149.058 35.1883L149.223 35.3308L149.27 35.4495L149.294 35.5445L149.27 35.9481L149.223 36.1856L149.034 36.5892L149.011 36.8504L148.94 36.9691L148.585 37.2303L147.924 37.634L147.758 37.8002L147.475 37.8951L147.144 38.2513L146.931 38.3463H146.625L145.798 38.1801L145.467 38.2275L143.128 39.5097L142.631 39.6522H142.324L142.017 39.6047L141.71 39.6284L141.45 39.7946L141.214 40.0321L140.954 40.1271H140.671L136.913 39.8184L137.032 41.2193L137.103 41.4567L137.528 42.5252L137.835 43.9023L138.048 44.5197L138.379 44.9945L138.072 45.5644L138.024 45.8018L138.284 45.8968L138.497 46.0155L138.567 46.2767V47.9863L138.474 48.2474L138.308 48.3899L136.559 48.841L136.323 48.7698L136.111 48.6511L134.032 48.4611H133.96L133.394 48.2237L133.063 47.7963L133.181 47.7726L133.465 47.7013L132.992 47.7251L132.803 47.6538L132.708 47.4639H133.417L134.221 47.5826L134.433 47.5351L134.811 47.3927L135.023 47.3689L135.402 47.4639L135.591 47.4876L135.757 47.4164L136.394 47.2265L137.386 47.1077L138.166 46.8466L138.19 46.2292L137.528 46.7753L136.536 46.989L131.079 47.2977L130.464 47.3927L125.881 48.3662L123.589 49.031L121.226 49.7196L118.864 50.1707L116.406 50.6218L114.02 51.1679L111.752 51.9752L109.177 52.2839L106.72 51.6191L104.168 51.1679L101.711 50.5031L97.8362 49.767L96.6785 49.2684L94.6942 47.915L92.4964 46.7991L92.3077 46.6091L91.8824 46.2055L91.6934 46.1105L91.4099 46.063L90.7483 45.6356L89.8742 45.0658L89.6145 44.9945L89.4016 44.8758L88.7165 44.0923L87.7244 43.38L87.2519 42.9288L86.8264 42.2877L86.4956 41.4092L86.3068 41.1005L86.1649 40.8631L85.9995 40.2695L85.8813 40.0558L85.9286 39.4622L85.4799 39.0586L84.8418 38.8211L83.0462 38.4412L81.8885 38.0139L82.0066 37.8714L82.0775 37.8951L82.2193 37.9426L82.361 37.9189L81.8649 37.6814L81.416 37.7527L80.9435 37.9426L80.3764 38.0139L75.0605 37.3253L74.0212 37.0166L71.8001 35.9007L70.7842 35.2358L69.8628 34.3098L69.154 33.3363L68.8705 32.719L68.7287 32.0779L68.7523 31.9592L68.776 31.793V31.6268L68.3034 30.8907L68.1853 30.6295L68.1381 30.2734V29.9172L68.2562 29.5848L67.6892 27.6853L67.4765 25.6671L67.2166 25.0735L67.193 24.1949L67.0985 23.8625L67.2639 23.3639L67.2166 21.9393L66.3188 21.7493H65.8702L65.5628 21.9155L65.2795 22.153L64.9485 22.3667L64.5707 22.5091L64.2397 22.6041L63.6018 22.5566H63.531L63.0821 22.153L62.704 21.5594L62.1843 20.942L61.9716 20.6809L61.7354 20.4434L61.5227 20.111L61.2865 19.9211L61.1211 19.7074L61.0266 19.2562L60.8612 18.9001H60.5304L59.8453 19.2087H59.42L59.1601 18.9951L58.9475 18.6864L58.2623 18.1878L58.2387 17.9028L58.3096 17.5942L58.1914 17.2143L58.026 17.0718L56.2068 16.2408L55.2854 15.5759L55.0255 15.1011L55.0019 14.4362L55.12 14.2463L55.8524 13.8189L55.8761 13.7239V13.6052L55.9233 13.4865L58.4749 13.0828L59.042 12.7504L59.1837 12.5605L59.2782 12.3705L59.3491 12.1331V11.8957L59.2782 11.7057L58.8766 10.8747L58.664 10.6847L57.8607 10.376L57.081 9.66373L56.7502 9.23635L56.5612 8.78521L56.5848 8.23911L56.8447 7.76423L57.2464 7.40807L57.6953 7.19438L58.5694 7.02817L59.3019 6.57704L59.798 6.43458L59.4909 5.84098L59.1128 5.34236L58.1678 4.53507L55.8288 1.99448L55.0019 1.25842L54.7184 1.09222L54.5294 1.04473L54.364 1.25842L54.2222 1.37714L54.0568 1.42463L52.9937 1.40089L52.6629 1.49586L52.403 1.66207L51.5997 2.42187L49.686 3.39537L48.9536 4.08394L48.7646 4.20266L48.4574 4.2264L47.4888 4.53507L46.9217 4.82L46.4728 5.17615L45.764 5.98344L45.3151 6.41083L44.7481 6.7195L43.3542 7.21812L42.6926 7.59802L42.5745 7.74049L42.5273 7.88295L42.0075 8.61901L41.7948 9.26009L41.724 9.37881L41.5586 9.52127L41.4877 9.56876L40.6608 10.0199L40.4718 10.0436L40.2591 9.99615L39.8811 9.82994H39.6685L39.4322 9.92492L39.2196 10.0911L39.0306 10.3048L38.6762 10.8747L38.6053 10.9696L38.4872 11.0409L38.2745 11.1596L38.1564 11.2546L37.991 11.492L37.7548 11.9906L37.5421 12.1806L36.7388 12.5605L36.4789 12.7504L36.2899 12.9879L35.9119 13.7239L35.7465 13.9614L35.5575 14.1513L35.3449 14.3175L35.1086 14.46L34.8251 14.555L34.5652 14.5787L34.329 14.5075L32.8878 13.9139L32.6988 13.8901H32.5334L32.2026 14.0089H31.6592L31.4938 14.0563L31.2103 14.1751L30.5015 14.6499L30.2653 14.7687L29.3438 14.8874H29.2021L28.3988 14.7212L27.4774 14.3175L24.5713 13.7714L23.5318 13.3915L22.3032 13.3678L21.5236 13.2016L21.1455 13.1778L20.9802 13.1541L20.673 12.9879L20.484 12.9404L20.295 12.8929L19.9879 12.7504L19.7043 12.5842L19.539 12.3943L19.5153 12.2281L19.539 12.0856L19.6098 11.9431L19.6335 11.7769L19.5626 11.682L19.2318 11.5395L19.1137 11.4445L19.0428 11.3021L18.9247 10.9459L18.8774 10.8272L18.7357 10.6847L18.6175 10.6135L18.4994 10.5423L18.4049 10.376L18.523 10.1386L18.4522 9.94866L18.2631 9.85368L18.0741 9.8062L17.9324 9.75871V9.61625L17.956 9.45004L17.9324 9.35506L17.7906 9.33132L17.6725 9.37881L17.578 9.45004L17.5307 9.47378L16.1132 9.0464L15.7351 9.14137L15.6406 8.90393L15.4989 8.0729L15.4044 7.90669L15.2862 7.74049L14.9555 7.05191L14.8373 6.88571L14.7192 6.83822L14.5775 6.67201L14.4593 6.50581L14.4121 6.38709L14.3412 6.29211L13.845 5.98344L13.7978 5.93595L13.7742 5.86472L13.7269 5.79349L13.6088 5.76975H13.467L13.3961 5.746L13.0418 5.50857L12.9709 5.41359L13.089 5.1999L12.8055 4.96246L12.6401 4.63004L12.2148 3.06295L12.0495 2.7068L11.7659 2.51684L11.8132 2.46936L11.8604 2.39813L11.5533 2.37438L11.2462 2.32689L10.9863 2.20818L10.9626 2.16069L9.82859 1.40089L9.5687 1.18719L8.74178 0.854777L8.55277 0.641083L8.17475 0.118719L7.96212 0L7.63135 0.0949754L6.1429 1.18719L6.09565 1.37714L6.16653 1.92325L6.11927 2.16069L6.04839 2.37438L5.57587 3.22916L5.52862 3.44285L5.50499 3.72778L5.52862 3.94147L5.57587 4.15517L5.55224 4.34512L5.43411 4.55881H5.41049L5.36323 4.91497L5.41049 5.22364L5.38686 5.53231L5.17422 5.84098L4.89071 6.03093L4.18192 6.31586L3.87478 6.38709L3.52039 6.36334L2.57534 5.93595L2.24457 5.88847L1.48854 6.07842L1.15777 6.10216L0.874255 6.07842H0.637993L0.448983 6.14965L0.165469 6.31586L8.55857e-05 6.50581L0.0945903 6.7195L0.448983 7.0994L0.519862 7.26561L0.59074 7.62177L0.756124 7.93044V8.04915L0.732498 8.16787V8.31034L0.779751 8.4528L0.945133 8.78521V8.92768L0.850629 9.2126L0.874255 9.35506L1.22865 9.61625L1.84293 9.92492L2.38633 10.2573L2.48084 10.661L2.22095 11.1596L2.15007 11.4208L2.2682 12.0619L2.15007 12.2756L1.91381 12.4418L1.7248 12.7504L1.79568 12.8691L1.84293 12.9641L1.89018 13.2253L1.98469 13.344L2.10282 13.439L2.22095 13.534V13.6764V13.8189L2.2682 13.9376L2.31545 14.0801L2.45721 14.4362L2.64622 14.6737L2.85886 14.8874L3.59127 15.2198L3.66215 15.6947L3.28413 16.8819L3.23688 17.2143L3.2605 17.4042L3.33138 17.6179L3.40226 17.9028L3.33138 18.0216L3.21325 18.1403L3.166 18.2353L3.35501 18.3302L3.59127 18.4015L3.7094 18.4727L3.8039 18.5677L3.89841 18.8288V19.185L3.82753 19.8261L3.96929 20.6571L3.94566 20.942L3.78028 21.6069V21.7968L3.8039 22.2242V22.3667L3.75665 22.6279L3.8039 22.7703L3.92204 22.8653L4.13467 22.9365L4.81983 23.0552L5.26873 22.8178L5.45774 22.7941L5.67037 22.8653L5.85938 23.0078L6.04839 23.2452L6.1429 23.5064V23.7676L5.83576 24.1712L5.33961 24.5511L4.93796 24.9548L5.00884 25.7383L4.96159 26.0707L4.86708 26.3794L4.77258 26.6168L4.67807 26.7593L4.44181 26.8543L4.32368 26.9492L4.30005 27.0917L4.41819 27.4004L4.34731 27.4953L4.06379 27.6141L3.89841 27.7565L3.75665 27.9702L3.63852 28.3026L3.52039 28.5638L3.18962 28.92L3.07149 29.1337V29.1574L2.95336 29.3474L2.85886 29.5611L2.83523 29.7747L2.90611 29.9884V30.2021L2.78798 30.3921L2.64622 30.5583L2.59897 30.7245L2.83523 31.0807L3.30775 31.1756L4.20555 31.0569L4.37093 31.1044L4.86708 31.3418L5.03247 31.4368L5.10335 31.5793L5.1506 31.7692L5.2451 31.9829L5.38686 32.1729L5.50499 32.1966L5.5995 32.1729L5.694 32.1491L5.78851 32.2204V32.3153L5.74125 32.5765V32.6715L5.83576 32.8614L6.02477 32.8852L6.2374 32.7902L6.42641 32.6952L6.80443 32.6715L7.18245 32.8377L7.53684 33.1226L8.033 33.6925L8.08025 33.8587L7.93849 34.0724L7.44234 34.4285L7.34784 34.571L7.27696 35.0696L7.56047 35.3545L7.86761 35.592L7.91486 35.8769L7.79673 36.2093L7.70223 36.613L7.6786 37.0166L7.74948 37.349L7.79673 37.634L7.63135 38.1088L7.70223 38.3938L7.89124 38.4887L8.41101 38.5362L8.62365 38.6787L8.81266 39.1536L8.95442 39.296L9.45057 39.2248L9.5687 39.3673L9.6632 39.6047L9.78133 39.8184L10.561 40.2933L10.8918 40.6494L10.8445 41.1718L10.6791 41.3855L10.4901 41.4805L10.3247 41.6229L10.2066 41.9078L10.2539 42.2403L10.3956 42.5252L10.4901 42.8101L10.3956 43.1188L10.2066 43.5936V43.7599L10.3247 44.0448L10.3956 44.1635L10.4901 44.1872L10.6083 44.2347L10.7028 44.306L10.75 44.4009L10.8209 44.6621L10.8918 44.7334L11.0099 44.7571L11.2934 44.6859L11.4115 44.6621L11.5297 44.7334L11.6714 44.8996L11.9786 45.042L12.0731 45.1845L12.0495 45.3744L11.8841 45.5406L11.8132 45.9918L11.9077 46.2767L12.0258 46.5379L12.0967 46.9178L12.0258 47.2977L11.8368 47.6064L11.3407 48.1762L11.1753 48.5799L11.2934 48.8648L11.5769 49.031L11.9313 49.126L12.3566 49.1022L12.5692 49.126L12.7346 49.2684L12.8527 49.4109L12.9945 49.5059L13.1599 49.5533H13.3489L13.5852 49.6721L13.7742 49.957L14.1049 50.5268L14.2703 50.883L14.2467 51.1917L13.9632 51.7853L13.8214 52.3551V52.6875L13.7742 52.735L13.5852 52.7825L13.5379 52.83L13.5143 53.0912L13.7033 53.3524L13.9868 53.5661L14.1522 53.756L14.1758 53.9697L14.2467 54.1122L14.3648 54.2309L14.483 54.3733L14.5538 54.587L14.5775 54.7532L14.6247 54.8957L14.7901 55.0857L15.1681 55.2519L15.5698 55.2044L16.3258 54.9195L16.6802 54.9432L16.9401 55.2281L17.0818 55.6555L17.1527 56.0354L17.1763 56.7477L17.2708 57.0327L17.5307 57.3413L17.2 57.555L17.2708 57.745L17.5307 57.9349L17.7434 58.1249L17.8142 58.4335L17.767 59.1933L17.8379 59.5495L18.2631 60.0719L18.4522 60.4043L18.3813 60.7367L18.2159 60.9979L18.0505 61.3303L17.956 61.6864L18.0505 61.9476L18.3104 62.1851L18.5939 62.2326L18.901 62.1376L19.1846 61.9476L19.4445 61.8764L19.8934 61.6627H20.2477L20.5785 61.7577L21.0983 61.9476L21.6181 62.3988L21.7834 62.5175L22.1615 62.5887L22.5631 62.9449L23.2246 63.8234L23.579 64.6544L23.7444 64.8681L23.9807 64.9393L24.5005 64.7969L24.6658 64.8206L24.8785 64.9631H25.162L25.4455 64.8206L25.7763 64.5594H25.918L26.0598 64.6069H26.2015L26.6504 64.4645L27.5246 64.512L27.8081 64.417L28.068 64.2745L28.3043 64.1795L28.5169 64.2033L28.9422 64.3457L29.0603 64.3695L29.1076 64.417L29.1785 64.7494L29.2493 64.8681L29.3202 64.9631L29.4383 65.0581L29.7219 65.1768L30.0054 65.153L30.596 65.0343L30.8559 64.9393L31.0922 64.7731L31.3521 64.6544L31.6356 64.7019L31.8718 64.8444L31.99 65.0818L31.9427 65.3192L31.801 65.6042L31.5647 65.7941L31.163 66.0553L30.9504 66.3165L30.7378 66.5064L30.4543 66.5539L29.9109 66.5064L29.2257 66.8626L28.9422 66.9338L27.9735 66.9101L27.69 67.0051L27.501 67.1952L27.4065 67.4562L27.3592 67.7411V68.0023L27.4774 68.6434L27.4537 68.8573L27.0285 68.7386H26.9576L26.8867 68.7621L27.0048 69.0948L27.1702 69.4032L27.2175 69.4744L27.2411 69.5457L27.2175 69.6171L27.1702 69.6644L27.0521 69.7593L26.9812 69.8546L26.9576 69.9968V70.1392L27.1466 70.6141L28.0208 71.9915L28.7768 72.6563L29.1076 73.036L29.2257 73.5109L29.1785 73.5821L29.1076 73.7483L28.9422 73.9383L28.8241 74.152L28.8713 74.4131L29.0603 74.5319H29.5801L29.7927 74.6981L29.7455 75.1254L29.4383 75.6243L29.2493 76.0992L29.5565 76.4076L29.4383 76.6215L29.2966 76.6928L29.1076 76.7163L28.7532 76.835L28.5169 76.7875H28.3752L27.9971 77.0012L27.8081 77.1912L27.5955 77.2386L27.1702 77.0724L26.9812 77.0964L26.8395 77.025L26.5559 76.835L26.3433 76.7875L26.2488 76.8115L26.0598 77.1199V77.1912L26.0834 77.4051L26.0598 77.4761L25.9889 77.5238L25.7763 77.5473L25.6818 77.5713L25.54 77.7135L25.4691 77.9035V78.1174L25.5164 78.3309V78.3548L25.6345 78.7585L25.6109 79.0672L25.4928 79.3756L25.3746 79.7795L25.1856 80.0404L24.8076 79.9217L24.3823 79.7082L24.0752 79.7317L23.9807 80.0404L24.0043 80.4678L23.9334 80.8479L23.5554 81.1089L23.1538 81.1564L22.9884 81.2276L22.8466 81.4176L22.7994 81.6077L22.8466 81.9399L22.7994 82.1299L22.3977 82.5575L22.3032 82.8184L22.5159 83.0559L22.634 83.1271L22.7521 83.2223L22.8466 83.341L22.8939 83.4598L22.9411 83.6495L23.012 83.7447L23.0829 83.8159L23.1301 83.9346L23.1774 84.2431V84.5517L23.2246 84.8367L23.39 85.0506L23.4373 85.1453L23.4137 85.3353L23.39 85.5015L23.3192 85.5967L23.2483 85.6202L22.9411 85.5255L21.9961 85.454L21.5708 85.3353L21.0983 85.0979L20.5549 84.9554L20.484 85.4068L20.6021 86.0476L20.5785 86.5465L20.5313 86.6652L20.4368 86.7839L20.3659 86.9026L20.2477 86.9974L19.539 87.1401L19.3972 87.3535L19.8225 88.7069L19.9879 89.0631L20.2477 89.253L20.5313 89.0396H20.8384L21.1219 89.2058L21.3345 89.5379L21.4054 89.8941L21.3818 90.3215L21.1928 91.1053L21.1219 91.2475L20.9329 91.5562L20.9093 91.6989L20.9802 91.8888L21.0747 92.031L21.1692 92.1737V92.3637L21.0274 92.5534L20.4604 93.0048L20.2477 93.2182L19.917 93.5032L19.7516 93.8593L19.6571 94.2867L19.4445 94.7381L19.3263 94.8568L19.1846 94.9515L18.8774 95.0942L19.1609 95.4739L19.4917 95.6639L19.8461 95.6878L20.2477 95.6166H20.295L20.3186 95.6401L20.3422 95.6639L21.5708 97.8723L21.7598 98.0622L21.9725 98.2519L22.1615 98.4419L22.256 98.7268L22.3268 99.0595L22.4214 99.3439L22.5395 99.6056L22.7285 99.8665L22.9411 100.08L23.6027 100.531L23.6499 100.674L23.6972 100.793V101.362L23.7917 101.481L24.0279 101.434L24.2642 101.268L24.6658 100.887L24.9021 100.793L25.5873 100.769L25.8708 100.698L25.8235 101.196L26.0598 101.457L26.3669 101.647L26.4614 102.027L26.2961 102.265L25.6345 102.668L25.4219 102.953L25.6581 103.143L26.0598 103.238L26.4851 103.191L26.745 102.953L26.8158 102.905L26.8867 102.882L26.9576 102.905L27.0285 102.953L27.0521 102.977L27.0993 103.001L27.5719 103.571L27.7136 103.855L27.8318 104.164L27.879 104.497V104.781L27.9499 105.019L28.4224 105.47L28.9658 106.23L29.4147 106.586L29.6037 106.776L29.7219 107.061V107.227L29.651 107.536L29.6273 107.678L29.6982 107.821L29.8636 107.939V108.082L29.7691 108.296L29.5801 108.509L29.2021 108.889L28.9186 109.103L28.6823 109.151L28.4697 109.127L28.1625 109.174L27.879 109.316L27.8554 109.507L28.0444 109.672L28.6587 109.744L28.9186 109.863L29.1312 110.029L29.2021 110.266L29.1076 110.551L28.8949 110.765L28.6823 110.931L28.4933 111.145L28.8004 111.809L29.6037 111.905L31.2339 111.715L32.6988 112.166L34.0927 112.831L34.4707 113.211L35.8174 113.994L36.4553 114.493L37.3531 115.063L37.9201 115.704L42.102 119.336L42.5509 119.669L42.9525 119.882L43.4014 119.978L43.8739 119.93L44.1338 119.835L44.7717 119.479L44.9608 119.503L45.7404 119.764L46.0239 119.93L46.2129 120.144L46.3783 120.381L46.591 120.69L46.969 120.975L47.0399 121.094L47.0635 121.283L47.0162 121.378L46.9454 121.473L46.8272 121.782L46.7563 121.853V121.925L46.8508 122.138L46.9217 122.233L47.3234 122.637L47.3943 122.732L47.4415 122.827L47.7014 123.159L47.7723 123.254L47.914 123.325L47.9849 123.515L48.2684 123.729L48.3393 123.943L48.3157 124.18L48.2448 124.323L48.1503 124.465L48.103 124.655L48.0794 124.893V125.011L48.1739 125.082L48.3866 125.154L48.5756 125.272L48.6937 125.439L48.8118 125.581L49.0245 125.605L49.2843 125.7L49.308 125.747L49.5206 126.056L49.8278 126.768L50.0404 127.005L50.5365 127.243L50.6547 127.528V127.552L50.7255 127.836L51.2217 128.715L51.3162 128.858L51.5761 129.024L51.6706 129.119L51.7415 129.261L51.8124 129.546L51.8596 129.689L52.0959 129.926L52.6393 130.354L52.8283 130.638L52.8755 130.995L52.781 131.351L50.6783 137.168L50.5838 143.935H55.1436L55.2854 144.03L55.3327 144.244L55.2854 152.15L55.309 152.649L56.7739 152.863L56.9156 152.91L57.0574 153.005L57.2936 153.267L57.4826 153.575L57.6008 153.931L57.7189 154.667L57.7662 154.81L57.8843 154.929L58.0497 155L58.1914 155.023H58.3568L58.8766 154.952H59.042L59.2074 155L59.3491 155.118L59.6326 155.593L60.0815 156.116L60.6013 156.638L60.6958 156.757L60.7667 156.923L60.7903 157.113L60.7667 157.279L60.6486 157.422L60.5304 157.54L60.4123 157.683L60.3887 157.872L60.4123 157.991L60.5777 158.372L60.8612 158.68L60.9321 158.846L60.9793 158.87L61.2392 159.701L61.2628 159.915L61.381 160.223L61.4518 160.342L61.5464 160.437L61.7354 160.579L61.9244 160.722L62.4678 160.888L62.4441 160.865H62.4678L62.4914 160.84L62.5623 160.746V160.865L63.5782 160.959L63.8853 160.865L64.0035 160.769L64.1216 160.674L64.2397 160.532L64.2634 160.366L64.2397 160.128L64.0507 159.82L63.9801 159.63L64.0271 159.345L64.2397 159.392L64.8304 159.725H65.7991L66.059 159.843L66.3188 159.748L67.2403 159.843L67.524 159.772L67.7837 159.559L67.9727 159.274L68.0436 158.941V158.775L67.9727 158.442L67.9491 158.276L67.9965 158.086L68.1147 157.754L68.1381 157.54L68.0672 156.804L67.9727 156.448L67.8545 156.139L67.6421 155.902L67.3584 155.664L67.1221 155.427L67.004 155.071L67.0515 154.976L67.1458 154.857L67.2166 154.738L67.0515 154.596L67.1221 154.382L67.2403 154.192L67.2878 154.121L68.0436 153.385L68.2089 153.338L68.965 153.456H69.2012L69.4611 153.171L69.3666 152.863L69.0122 152.649L68.5872 152.554L68.2089 152.388L68.3034 152.055L68.7053 151.794L69.2012 151.865L69.4375 151.747H69.6738L69.91 151.818L70.1935 151.865H70.2644L70.3825 151.77H70.4773L70.5716 151.818L70.7136 152.032L70.8078 152.103L70.9968 152.055L71.1386 151.936L71.2567 151.913L71.3749 152.103L71.3276 152.174L71.3042 152.222L71.2803 152.436L71.493 152.269L71.7056 152.032L71.871 151.961L71.9891 152.554L72.1073 152.792L72.3199 152.934L72.6036 152.886L72.5798 153.171L72.5089 153.338L72.1073 153.86L71.8474 154.359L71.7529 154.573L71.5875 154.311L71.3985 154.145L71.1622 154.05L70.8551 154.002L70.6661 153.931L70.099 153.623L69.8155 153.551L69.5556 153.599L69.1067 153.765H68.7996L68.2328 153.67L68.0199 153.741L67.8545 154.002L68.3034 154.121L68.6578 154.311L68.9177 154.643L69.0122 155.19L69.2012 155.356L70.099 155.902L70.4298 156.021L70.6661 156.044L70.8078 156.21L70.9259 156.424L71.1861 156.591L71.4223 156.543L71.6111 156.353L71.7767 156.092L71.8474 155.807L72.013 155.926V156.021L71.9655 156.116L71.9419 156.258V156.496V156.591L71.9891 156.685L72.2018 156.828L72.2254 156.875L72.2018 157.54L72.3435 157.683L72.6979 157.706L72.9814 157.659L73.5012 157.422L73.785 157.374L73.9031 157.422L74.1155 157.564L74.2575 157.611L74.4226 157.588L74.73 157.516L74.8715 157.493L75.1787 157.516L75.2968 157.54L75.4388 157.611L75.5803 157.706L75.6512 157.778L75.6751 157.849L75.7693 157.991L75.8875 158.276V159.036L75.9347 159.297L76.3127 159.891L76.7616 159.986L77.2578 159.772L81.605 156.899L82.1011 156.733L82.6209 156.638L83.1173 156.709L83.4717 156.852L83.5898 156.899L83.8022 157.041L83.8731 157.208L83.9442 157.493L84.133 157.825L84.3456 158.11L84.5583 158.276L84.4638 158.703L84.7945 159.63L84.6291 160.2L84.8182 160.295L84.9127 160.413L84.8418 160.508L84.6291 160.532L84.6764 160.698L84.7 161.007L84.7473 161.197L84.7945 161.268L85.3143 161.838L85.905 162.194L86.1649 162.431L86.4956 162.93L87.1099 164.117L87.4882 164.687L87.8659 165.114L88.0549 165.423L88.1495 165.756L88.2676 165.922L89.0945 166.254L89.5434 166.729L89.756 167.038L89.8508 167.323L89.9689 167.536L90.7011 168.154L91.1027 168.771L91.1736 168.961V168.463L91.3865 168.581L91.6698 168.961L91.8351 169.294L91.9533 169.744L92.0242 170.386V171.027L91.9297 171.431L92.0953 171.739L92.1895 171.834L92.3077 171.881L92.284 172L92.2134 172.665L92.0242 172.428L91.8824 172.546L91.7879 172.831L91.6934 173.045L91.5753 173.259L91.528 173.449L91.5753 173.852L91.6934 174.303L92.0005 174.588L92.3785 174.636L92.7327 174.399L92.9928 174.351L94.0796 174.303L94.4104 174.351L94.4579 174.446L94.4813 174.565L94.5047 174.849L94.5522 174.921L94.6703 174.897L94.7884 174.826L94.8829 174.802L95.0485 174.944L95.1428 175.111L95.2609 175.586L95.5211 175.514L95.6392 175.752L95.686 176.132L95.6392 176.488L95.5445 176.678L95.2609 176.939L95.1667 177.058L95.1428 177.224L95.1901 177.367L95.2135 177.485L95.0719 177.628L94.9304 177.342L94.7175 177.058L94.434 176.82L94.1741 176.702L93.8906 176.892L93.8434 177.295L93.914 177.746L94.0321 178.055L94.6703 178.91L94.7884 179.242L94.9065 179.408L95.1667 179.479L95.7335 179.527L96.3241 179.669L96.773 179.954L97.1274 180.382L97.4346 180.975L97.5999 181.688L97.6236 183.777L97.7417 184.3L98.5686 186.484L98.6867 186.65L99.1356 187.149L99.6318 187.956L99.7972 188.17L100.27 188.621L100.553 189.096L100.577 189.547L100.27 190.426L100.293 190.853L100.341 191.09L100.459 191.257L101.428 192.23L101.711 192.444L102.349 192.634L102.703 192.8L102.845 193.061L102.892 193.465L103.034 193.773L103.2 194.011L103.837 194.7L104.121 194.937L104.499 195.056L104.57 195.15L104.617 195.269L104.641 195.412L104.711 195.531L104.877 195.578L106.389 195.697L106.672 195.673L107.476 195.483H108.161L108.492 195.578L108.752 195.768L108.988 195.839L109.933 195.697L110.594 195.792L111.161 196.053L111.681 196.409L113.311 197.999L113.831 198.285L116.288 198.855L116.808 199.092L117.257 199.472L118.296 200.588L118.391 200.754L118.603 201.3L118.722 201.49L118.934 201.68L119.502 201.894L119.714 202.107L119.832 202.487L119.667 202.654L119.36 202.677H119.1L118.816 202.701L118.58 202.796L118.462 203.01L118.485 203.342L118.769 203.674L119.832 204.173L120.565 204.506L121.061 204.862L122.171 205.93L122.809 206.12L123.092 206.31L123.211 206.666L123.353 206.832L124.156 207.046L124.345 207.26L124.487 207.545L124.676 207.759L124.959 207.83L125.266 207.877L129.968 209.563L130.417 209.848L130.653 210.157L130.771 210.489L130.795 211.272L130.866 211.581L131.079 211.842L132.425 212.911L133.465 213.576L134.173 214.24L134.339 214.312L134.669 214.122L135 214.145L135.614 214.359L135.922 214.335L136.489 214.169L137.127 214.074L138.024 213.623L138.331 213.576H138.474L138.592 213.623L138.851 213.861L138.993 213.908L139.229 213.956L140.174 214.24L140.482 214.288L141.521 214.193L141.805 214.122L142.064 214.074L142.372 214.122L142.773 214.478L143.033 214.976L143.246 215.523L143.482 215.926L144.001 216.188L145.254 216.14L145.868 216.259L146.27 216.686L146.435 217.161L146.672 217.517L147.286 217.612L148.467 217.517L148.633 217.541L148.869 217.683L149.034 217.731L149.199 217.683L149.294 217.588L149.389 217.494L149.483 217.398L150.971 216.472L152.295 215.309L152.46 215.214L153.358 214.359L153.57 214.264L154.185 214.074L154.445 214.027L154.776 213.956L154.917 213.718L154.988 213.433L155.154 213.125L155.673 212.864L156.311 212.958L157.422 213.362L158.059 213.386L158.626 213.267L159.146 212.982L159.595 212.555L159.808 212.222L159.949 211.771L160.044 211.272L159.997 210.869L159.879 210.988L159.808 211.035L159.595 211.106L160.351 210.228L160.493 210.085L160.682 209.99L161.13 209.539L161.415 209.421H161.533L161.982 209.515H162.501L162.619 209.492L162.832 209.326L162.974 209.302L163.446 209.326L163.588 209.302L164.155 209.159L164.769 209.065L164.935 209.017L165.171 208.779L165.242 208.732V208.661L165.596 208.376L166.518 207.782L166.754 207.568L166.872 207.473L166.99 207.45L167.061 207.403L167.085 207.236L167.132 207.141L167.368 206.903L167.463 206.832L167.841 206.737L168.739 206.714L169.045 206.547L169.353 206.31L169.802 206.191L170.652 206.144L171.078 206.215L171.81 206.524L172.212 206.619L173.062 206.666L173.487 206.737L173.818 206.951L173.913 206.832L174.22 206.928L175.66 206.951L175.803 207.022L175.897 207.165L176.039 207.331L176.228 207.403H176.606L176.795 207.331L176.96 207.165L177.031 207.545L177.268 207.877L177.599 208.115L178 208.186V208.305L177.882 208.399L177.646 208.684L177.575 208.732L177.432 208.803V208.922L177.527 208.993L177.693 208.969V209.136L177.74 209.254L177.811 209.326L178.094 209.183L178.189 209.254L178.259 209.349L178.331 209.421L178.402 209.444L178.449 209.515L178.52 209.61L178.662 209.634L178.803 209.61L179.229 209.421L179.134 209.539L179.086 209.705L179.111 209.848L179.229 209.967L179.063 210.038L178.921 210.133L178.756 210.204L178.567 210.18L178.709 210.346L179.134 210.655L179.111 210.916L179.276 211.177L179.748 211.605L179.938 211.914L180.835 215.713L180.883 216.472L180.646 218.514V218.681L180.693 219.037L180.74 219.179L180.811 219.322L181.071 219.583L181.237 219.892L181.331 220.248L181.402 220.984L181.497 221.102L181.426 221.53L182.347 222.599L182.536 223.121L182.394 223.453L181.946 223.952L181.875 224.308L181.898 224.498L182.04 224.806L182.087 225.092L182.276 225.685L182.324 225.875L182.347 225.946H182.394L182.56 225.923L182.63 225.946L182.938 226.326L182.961 226.398L183.103 226.54L183.221 226.848L183.387 227.513L183.718 228.344L183.812 229.152L183.906 229.389L184.096 229.508L185.962 229.65L185.844 229.745L186.789 230.054L187.143 230.101L187.285 230.078L187.545 230.006L187.71 229.983L187.876 230.006L188.159 230.172L188.325 230.197L189.104 230.006L189.412 229.983L189.766 230.006L190.049 230.078L190.262 230.268L190.404 230.647L190.427 230.79L190.404 230.837L190.38 230.932L190.333 231.122L190.262 231.834H190.475L190.781 231.645L191.254 231.217L191.821 230.909L192.388 230.766L192.908 230.885L193.333 231.455L193.759 232.381L194.066 232.832L194.443 233.022L194.893 233.093L195.318 233.236L195.791 233.331L196.287 233.259L196.783 232.879L196.854 232.856L196.901 232.951L197.019 232.974L197.16 232.927L197.278 232.856L197.445 232.69H197.515L197.563 232.737L197.657 232.784L197.869 232.737L198.177 232.452L198.366 232.334L198.814 232.238L199.216 232.215L199.122 232.476L199.382 232.618L200.114 232.665L200.988 232.523L203.493 233.022H204.674L204.839 233.069L204.91 233.188L204.957 233.354L205.052 233.521L205.17 233.592L205.643 233.568L206.186 233.829L206.541 234.28L207.178 235.372L207.344 235.539L207.58 235.633L207.863 235.705L208.171 235.729L208.313 235.681L208.431 235.633L208.549 235.586L208.643 235.658L208.761 235.776L208.88 235.8L209.163 235.729L209.943 235.325L210.722 235.183L211.124 235.135L213.085 234.399L213.723 234.375L214.314 234.589L215.141 235.467L215.707 235.729H216.251L218.708 235.467L218.944 235.586L219.039 235.871L219.086 235.966L219.63 236.489L219.723 236.464L219.795 236.346L219.889 236.275L221.023 235.942L221.613 235.919L222.157 236.061H222.228L222.37 236.037L222.44 236.061V236.133L222.417 236.322L222.44 236.393L222.583 236.607L222.701 236.678L223.173 236.75L223.315 236.821L223.598 237.011L223.693 236.916L223.764 236.607L223.788 236.489L223.74 236.417V236.322L223.882 236.18L223.953 236.133L224.33 236.061L224.827 236.037L225.087 236.061L225.275 236.18L225.229 236.227L225.087 236.489L225.394 236.726L226.102 236.845L226.387 237.011L227.19 237.795L227.355 237.842H227.568L227.497 237.604L227.19 237.058V237.035V236.964V236.892L227.142 236.773L227.072 236.75H226.954L226.811 236.655H226.717L226.646 236.607L226.599 236.275L226.552 236.18V236.061L226.67 235.871L226.883 235.61L227.001 235.372L227.237 235.23L228.206 234.921L228.442 234.898L228.678 234.921L228.891 235.064L229.41 235.61L229.458 235.752V236.655L229.505 236.892L229.836 237.414L229.623 237.604L229.836 237.747L231.159 237.913L233.072 238.412L235.341 238.815L237.656 239.551L237.704 239.623L237.797 240.003L237.845 240.097L238.365 240.311L241.105 241L240.94 240.81L240.727 240.667L241.484 240.43L241.673 240.311L241.791 240.192L241.814 240.145V240.05L241.862 239.884L242.098 239.575L242.168 239.409L242.05 239.266L241.909 239.195L241.578 239.076L241.885 238.839H242.121L242.334 238.934L242.641 238.982L242.547 238.887L242.429 238.72L242.334 238.649L242.381 238.554L242.404 238.269L242.452 238.198L242.571 238.103L242.641 238.151L242.689 238.245L242.925 238.435L242.972 238.697L243.043 238.934L243.492 237.581L243.799 232.191L243.846 231.953L243.94 231.811L244.13 231.597L244.224 231.455L244.271 230.885L244.106 230.244L244.035 229.65L244.319 229.199L244.626 229.128H244.885L245.122 229.08L245.335 228.795L245.429 228.51L246.115 223.097L246.233 222.599L246.421 222.147L246.752 221.886L248.429 221.364L248.926 221.031L249.186 220.889L249.469 220.794L250.036 220.699L250.154 220.533L250.225 220.129L250.437 219.725L250.981 219.797L251.596 220.034L252.091 220.105L252.399 219.939V219.702L252.257 219.393L252.186 219.013L252.281 218.823L252.706 218.372L252.848 218.087V217.969L252.8 217.897L252.753 217.778L252.777 217.636L252.871 217.517L252.99 217.422L253.249 217.303L253.368 217.256L253.533 217.113L253.651 217.042H253.793H254.076L254.218 217.019L254.313 216.947L254.407 216.71L254.525 216.638L254.667 216.591L256.959 216.33L257.266 216.235L257.36 216.14L257.478 215.998L257.597 215.926L257.738 215.95L257.904 216.045H258.022L258.447 215.95L258.565 215.903L258.66 215.832L258.755 215.76L258.896 215.475L259.014 215.332L259.156 215.285L262.44 215.38L262.984 215.475H263.527L263.929 215.38L264.047 215.404L264.165 215.451L264.283 215.523L264.377 215.594H264.519L264.826 215.285L264.968 214.62L265.086 212.246L265.181 211.985L265.417 211.842L265.984 211.747L266.197 211.558L266.22 211.249L266.102 210.988L265.937 210.727L265.819 210.418L265.748 208.565L265.771 208.376L265.819 208.209L265.984 207.996L266.031 207.83L266.173 207.568L266.456 207.426H266.739L267 207.521L266.528 206.429Z" fill="var(--fill-0, #212121)"/>
</g>
</svg>
