<svg width="24" height="24" viewBox="0 0 24 24" fill="none" xmlns="http://www.w3.org/2000/svg">
  <path opacity="0.4" d="M3.59179 1.92L6.4469 12H20.4487L10.9642 1.46C10.1233 0.54 8.95001 0 7.73757 0H5.01935C4.04157 0 3.33757 0.96 3.61135 1.92H3.59179Z" fill="#C9ADA7"/>
  <path d="M10.8951 15.76H18.952C19.5582 15.76 20.0471 16.26 20.0471 16.88C20.0471 17.5 19.5582 18 18.952 18H10.8951C10.2889 18 9.8 17.5 9.8 16.88C9.8 16.26 10.2889 15.76 10.8951 15.76ZM23 22.88V12H3.85511C2.29067 12 1 13.3 1 14.92C1 15.78 1.37156 16.62 2.03644 17.16C7.27733 21.58 13.848 24 20.6533 24H23V22.88Z" fill="#C9ADA7"/>
</svg>
