<svg preserveAspectRatio="none" width="100%" height="100%" overflow="visible" style="display: block;" viewBox="0 0 23.5 18.1941" fill="none" xmlns="http://www.w3.org/2000/svg">
<g id="Group 13175">
<g id="Group" opacity="0.4">
<path id="Vector" d="M13.717 12.0256C13.717 11.4884 14.1522 11.0553 14.6919 11.0553H19.2526C19.7922 11.0553 20.2274 11.4884 20.2274 12.0256C20.2274 12.5627 19.7922 12.9959 19.2526 12.9959H14.6919C14.1522 12.9959 13.717 12.5627 13.717 12.0256ZM13.717 8.12696C13.717 7.58982 14.1522 7.15664 14.6919 7.15664H19.2526C19.7922 7.15664 20.2274 7.58982 20.2274 8.12696C20.2274 8.66411 19.7922 9.09728 19.2526 9.09728H14.6919C14.1522 9.09728 13.717 8.66411 13.717 8.12696ZM9.46963 9.09728C9.46963 10.3448 8.44259 11.3671 7.18926 11.3671C5.93593 11.3671 4.90889 10.3448 4.90889 9.09728C4.90889 7.84973 5.93593 6.82742 7.18926 6.82742C8.44259 6.82742 9.46963 7.84973 9.46963 9.09728ZM3.35963 14.1742C3.95148 13.4637 4.85667 12.9959 5.8837 12.9959H8.49482C9.50444 12.9959 10.4096 13.4464 11.0189 14.1742C11.5411 14.8153 10.9319 15.595 10.0963 15.595H4.28222C3.46407 15.595 2.83741 14.8153 3.37704 14.1742H3.35963ZM0 3.89913V15.595C0 17.0331 1.1663 18.1941 2.61111 18.1941H20.8889C22.3337 18.1941 23.5 17.0331 23.5 15.595V3.89913H0Z" fill="var(--fill-0, #C9ADA7)"/>
</g>
<path id="Vector_2" d="M10.0963 15.5945C10.9144 15.5945 11.5411 14.8147 11.0189 14.1736C10.427 13.4632 9.52185 12.9954 8.49482 12.9954H5.8837C4.87407 12.9954 3.96889 13.4459 3.35963 14.1736C2.83741 14.8147 3.44667 15.5945 4.28222 15.5945H10.0963ZM9.46963 9.09677C9.46963 7.84922 8.44259 6.82691 7.18926 6.82691C5.93593 6.82691 4.90889 7.84922 4.90889 9.09677C4.90889 10.3443 5.93593 11.3666 7.18926 11.3666C8.44259 11.3666 9.46963 10.3443 9.46963 9.09677ZM2.61111 0C1.1663 0 0 1.16092 0 2.59908V3.89862H23.5V2.59908C23.5 1.16092 22.3337 0 20.8889 0H2.61111Z" fill="var(--fill-0, #C9ADA7)"/>
</g>
</svg>
