<svg width="24" height="24" viewBox="0 0 24 24" fill="none" xmlns="http://www.w3.org/2000/svg">
  <path opacity="0.4" d="M17.74 6.01C17.68 6 17.6 6 17.52 6C15.87 6 14.53 7.34 14.53 8.99C14.53 10.64 15.87 11.98 17.52 11.98C19.17 11.98 20.51 10.64 20.51 8.99C20.5 8.92 20.5 8.84 20.49 8.77C20.33 7.23 19.27 6.17 17.74 6.01Z" fill="#C9ADA7"/>
  <path opacity="0.4" d="M6.24 6.01C6.18 6 6.1 6 6.02 6C4.37 6 3.03 7.34 3.03 8.99C3.03 10.64 4.37 11.98 6.02 11.98C7.67 11.98 9.01 10.64 9.01 8.99C9 8.92 9 8.84 8.99 8.77C8.83 7.23 7.77 6.17 6.24 6.01Z" fill="#C9ADA7"/>
  <path d="M18.09 13.73C16.41 12.61 13.8 12.2 12 12.2C10.2 12.2 7.59 12.61 5.91 13.73C4.95 14.38 4.41 15.33 4.41 16.36C4.41 17.39 4.95 18.33 5.9 18.97C7.07 19.76 8.54 20.16 10 20.16H14C15.46 20.16 16.93 19.76 18.1 18.97C19.05 18.33 19.59 17.38 19.59 16.35C19.58 15.32 19.05 14.38 18.09 13.73Z" fill="#C9ADA7"/>
</svg>
