<svg preserveAspectRatio="none" width="100%" height="100%" overflow="visible" style="display: block;" viewBox="0 0 24 24" fill="none" xmlns="http://www.w3.org/2000/svg">
<g id="Layer_1">
<g id="Group" opacity="0.4">
<path id="Vector" d="M16.3378 15.5C16.3378 16.0511 16.7822 16.4956 17.3333 16.4956C17.8844 16.4956 18.3289 16.0511 18.3289 15.5C18.3289 14.9489 17.8844 14.5044 17.3333 14.5044C16.7822 14.5044 16.3378 14.9489 16.3378 15.5ZM16.3378 11.5C16.3378 12.0511 16.7822 12.4956 17.3333 12.4956C17.8844 12.4956 18.3289 12.0511 18.3289 11.5C18.3289 10.9489 17.8844 10.5044 17.3333 10.5044C16.7822 10.5044 16.3378 10.9489 16.3378 11.5ZM16.3378 7.5C16.3378 8.05111 16.7822 8.49556 17.3333 8.49556C17.8844 8.49556 18.3289 8.05111 18.3289 7.5C18.3289 6.94889 17.8844 6.50444 17.3333 6.50444C16.7822 6.50444 16.3378 6.94889 16.3378 7.5ZM3.43111 9.24222L3.94667 11.34C3.96444 11.4467 3.96444 11.5533 3.94667 11.66L3.43111 13.7578C3.37778 13.9711 3.53778 14.1667 3.75111 14.1667H4.32C4.53333 14.1667 4.72889 14.06 4.85333 13.9L5.65333 12.8333H7.32444L6.16889 15.7133C6.08 15.9267 6.24 16.1756 6.47111 16.1756H7.78667C8.10667 16.1756 8.42667 16.0156 8.60444 15.7489L10.6311 12.8333H13.2978C14.0267 12.8333 14.6311 12.2289 14.6311 11.5C14.6311 10.7711 14.0267 10.1667 13.2978 10.1667H10.6311L8.60444 7.25111C8.40889 6.98444 8.10667 6.82444 7.78667 6.82444H6.47111C6.24 6.82444 6.08 7.05556 6.16889 7.28667L7.32444 10.1667H5.65333L4.85333 9.1C4.72889 8.94 4.53333 8.83333 4.32 8.83333H3.75111C3.53778 8.83333 3.37778 9.02889 3.43111 9.24222ZM0 6.16667C0 4.69111 1.19111 3.5 2.66667 3.5H21.3333C22.8089 3.5 24 4.69111 24 6.16667V8.83333C24 9.20667 23.6978 9.49111 23.3422 9.61556C22.56 9.88222 21.9911 10.6289 21.9911 11.5C21.9911 12.3711 22.56 13.1178 23.3422 13.3844C23.68 13.5089 24 13.7933 24 14.1667V16.8333C24 18.3089 22.8089 19.5 21.3333 19.5H2.66667C1.19111 19.5 0 18.3089 0 16.8333V6.16667Z" fill="var(--fill-0, #C9ADA7)"/>
</g>
<path id="Vector_2" d="M6.18659 7.28644L7.34215 10.1664H5.67104L4.87104 9.09977C4.74659 8.93977 4.55104 8.83311 4.3377 8.83311H3.76881C3.55548 8.83311 3.39548 9.02866 3.44881 9.242L3.98215 11.3398C3.99992 11.4464 3.99992 11.5531 3.98215 11.6598L3.46659 13.7576C3.41326 13.9709 3.57326 14.1664 3.78659 14.1664H4.35548C4.56881 14.1664 4.76437 14.0598 4.88881 13.8998L5.68881 12.8331H7.35992L6.20437 15.7131C6.11548 15.9264 6.27548 16.1753 6.50659 16.1753H7.82215C8.14215 16.1753 8.46215 16.0153 8.63992 15.7487L10.6666 12.8331H13.3333C14.0621 12.8331 14.6666 12.2287 14.6666 11.4998C14.6666 10.7709 14.0621 10.1664 13.3333 10.1664H10.6666L8.63992 7.25089C8.44437 6.98422 8.14215 6.82422 7.82215 6.82422H6.50659C6.27548 6.82422 6.11548 7.05533 6.20437 7.28644H6.18659Z" fill="var(--fill-0, #C9ADA7)"/>
</g>
</svg>
