<svg width="24" height="24" viewBox="0 0 24 24" fill="none" xmlns="http://www.w3.org/2000/svg">
  <path opacity="0.4" d="M-0.219727 5.83514C-0.219727 6.40221 0.238076 6.85953 0.805751 6.85953L2.01435 20.762C2.10591 21.8229 3.0032 22.6461 4.06531 22.6461H7.12343C7.03187 22.2986 6.99524 21.9327 6.99524 21.5668C6.99524 21.1095 7.12343 20.6705 7.36148 20.3229C7.14174 19.8839 6.99524 19.4083 6.99524 18.8778C6.99524 18.201 7.21499 17.5973 7.56292 17.0851C7.19667 16.5547 6.99524 15.9144 6.99524 15.2193C6.99524 14.5242 7.0868 13.5729 7.61785 12.6766C8.4419 11.2315 10.4562 8.83514 14.43 8.32294L14.5581 6.85953C15.1258 6.85953 15.5836 6.40221 15.5836 5.83514C15.5836 5.26807 15.1258 4.81075 14.5581 4.81075H8.4419L9.10113 2.32294C9.13776 2.1766 9.28425 2.06685 9.43075 2.06685H10.7858C11.3535 2.06685 11.8113 1.60953 11.8113 1.04246C11.8113 0.475383 11.3535 0.0180664 10.7858 0.0180664H9.43075C8.33202 0.0180664 7.3798 0.749774 7.10511 1.79246L6.29938 4.81075H0.805751C0.238076 4.81075 -0.219727 5.26807 -0.219727 5.83514Z" fill="#C9ADA7"/>
  <path d="M19.3556 13.0242C19.7402 13.0242 20.0515 13.3352 20.0515 13.7193C20.0515 14.1034 19.7402 14.4144 19.3556 14.4144C18.9711 14.4144 18.6598 14.1034 18.6598 13.7193C18.6598 13.3352 18.9711 13.0242 19.3556 13.0242ZM11.7927 13.7193C11.7927 13.3352 12.104 13.0242 12.4886 13.0242C12.8731 13.0242 13.1844 13.3352 13.1844 13.7193C13.1844 14.1034 12.8731 14.4144 12.4886 14.4144C12.104 14.4144 11.7927 14.1034 11.7927 13.7193ZM15.9129 11.6705C16.2975 11.6705 16.6088 11.9815 16.6088 12.3656C16.6088 12.7498 16.2975 13.0608 15.9129 13.0608C15.5284 13.0608 15.2171 12.7498 15.2171 12.3656C15.2171 11.9815 15.5284 11.6705 15.9129 11.6705ZM9.0459 18.8595C9.0459 19.4266 9.5037 19.8839 10.0714 19.8839H21.7545C22.3222 19.8839 22.78 19.4266 22.78 18.8595C22.78 18.2925 22.3222 17.8352 21.7545 17.8352H10.0714C9.5037 17.8352 9.0459 18.2925 9.0459 18.8595ZM9.0459 15.201C9.0459 15.8961 9.61357 16.4632 10.3094 16.4632H21.5348C22.2306 16.4632 22.7983 15.8961 22.7983 15.201C22.7983 14.6705 22.725 14.14 22.4504 13.6827C21.7728 12.512 19.9599 10.2803 15.9312 10.2803C11.8843 10.2803 10.0897 12.512 9.41214 13.6827C9.15577 14.14 9.06421 14.6705 9.06421 15.201H9.0459ZM9.33889 21.2559C9.17408 21.2559 9.0459 21.3839 9.0459 21.5486C9.0459 22.9022 10.1446 23.9998 11.4997 23.9998H20.3262C21.6812 23.9998 22.78 22.9022 22.78 21.5486C22.78 21.3839 22.6518 21.2559 22.487 21.2559H9.33889Z" fill="#C9ADA7"/>
</svg>
