<svg width="24" height="24" viewBox="0 0 21 24" fill="none" xmlns="http://www.w3.org/2000/svg">
  <path opacity="0.4" d="M0.00046875 15.14C0.00046875 17.46 1.32047 19.58 3.38047 20.62L9.82047 23.84C10.2405 24.06 10.7405 24.06 11.1605 23.84L17.6005 20.62C19.6805 19.58 20.9805 17.46 20.9805 15.14C20.9805 14.36 20.8405 13.58 20.5405 12.86L19.8605 11.18C19.6005 10.52 19.4605 9.83998 19.4605 9.13998V8.97998H1.50047V9.13998C1.50047 9.83998 1.36047 10.54 1.10047 11.18L0.420469 12.86C0.140469 13.58 -0.0195312 14.36 -0.0195312 15.14H0.00046875Z" fill="#C9ADA7"/>
  <path d="M11.2801 0.219766C10.8001 -0.0602344 10.2201 -0.0602344 9.74007 0.219766L9.52007 0.359766C7.76007 1.41977 5.58007 1.49977 3.74007 0.579766L3.68007 0.539766C2.96007 0.179766 2.10007 0.439766 1.70007 1.13977L0.200069 3.75977C-0.0399311 4.19977 -0.0599311 4.71977 0.160069 5.17977L0.920069 6.69977C1.28007 7.41977 1.48007 8.19977 1.50007 8.99977H19.5001C19.5201 8.19977 19.7201 7.41977 20.0801 6.69977L20.8401 5.17977C21.0601 4.73977 21.0601 4.19977 20.8001 3.75977L19.3001 1.13977C18.9001 0.459766 18.0401 0.179766 17.3201 0.539766L17.2601 0.579766C15.4201 1.49977 13.2401 1.41977 11.4801 0.359766L11.2601 0.219766H11.2801Z" fill="#C9ADA7"/>
</svg>
