<svg preserveAspectRatio="none" width="100%" height="100%" overflow="visible" style="display: block;" viewBox="0 0 24.2496 21.5558" fill="none" xmlns="http://www.w3.org/2000/svg">
<g id="Group 13174">
<g id="Group" opacity="0.4">
<path id="Vector" d="M0 20.1185C0 19.3329 0.646675 18.6815 1.42649 18.6815H18.5444C19.3242 18.6815 19.9708 19.3329 19.9708 20.1185C19.9708 20.9041 19.3242 21.5556 18.5444 21.5556H1.42649C0.646675 21.5556 0 20.9041 0 20.1185Z" fill="var(--fill-0, #C9ADA7)"/>
</g>
<path id="Vector_2" d="M18.5436 2.87411C20.1223 2.87411 21.3966 4.15788 21.3966 5.74822C21.3966 7.33856 20.1223 8.62233 18.5436 8.62233V2.87411ZM2.85227 0C2.07246 0 1.42578 0.651465 1.42578 1.43706V11.4964C1.42578 13.8724 3.34679 15.8076 5.70525 15.8076H14.2642C16.6226 15.8076 18.5436 13.8724 18.5436 11.4964C21.7009 11.4964 24.2496 8.9289 24.2496 5.74822C24.2496 2.56754 21.7009 0 18.5436 0H2.85227Z" fill="var(--fill-0, #C9ADA7)"/>
</g>
</svg>
