<svg preserveAspectRatio="none" width="100%" height="100%" overflow="visible" style="display: block;" viewBox="0 0 24 21" fill="none" xmlns="http://www.w3.org/2000/svg">
<g id="Layer_1" clip-path="url(#clip0_0_27)">
<g id="Group" opacity="0.4">
<path id="Vector" d="M17.333 19.04C17.333 20.125 18.2219 21 19.3241 21C20.4263 21 21.3152 20.125 21.3152 19.04C21.3152 18.8125 21.2797 18.585 21.2086 18.375H17.4397C17.3686 18.585 17.333 18.795 17.333 19.04ZM7.32412 4.585V11.795C7.32412 12.88 8.21301 13.755 9.31523 13.755H19.3063C20.4086 13.755 21.2975 12.88 21.2975 11.795V4.585C21.2975 3.5 20.4086 2.625 19.3063 2.625H9.31523C8.21301 2.625 7.32412 3.5 7.32412 4.585ZM5.33301 19.04C5.33301 20.125 6.2219 21 7.32412 21C8.42634 21 9.31523 20.125 9.31523 19.04C9.31523 18.8125 9.27967 18.585 9.20856 18.375H5.43967C5.36856 18.585 5.33301 18.795 5.33301 19.04Z" fill="var(--fill-0, #C9ADA7)"/>
</g>
<path id="Vector_2" d="M-6.95388e-10 1.3125C-6.95388e-10 0.595 0.604444 0 1.33333 0H2.00889C3.85778 0 5.35111 1.47 5.35111 3.29V15.1025C5.35111 15.47 5.65333 15.7675 6.02667 15.7675H22.7022C23.4311 15.7675 24.0356 16.3625 24.0356 17.08C24.0356 17.7975 23.4311 18.3925 22.7022 18.3925H6.00889C4.16 18.3925 2.66667 16.9225 2.66667 15.1025V3.29C2.66667 2.9225 2.36444 2.625 1.99111 2.625H1.31556C0.586667 2.625 -0.0177778 2.03 -0.0177778 1.3125H-6.95388e-10Z" fill="var(--fill-0, #C9ADA7)"/>
</g>
<defs>
<clipPath id="clip0_0_27">
<rect width="24" height="21" fill="white"/>
</clipPath>
</defs>
</svg>
