<svg preserveAspectRatio="none" width="100%" height="100%" overflow="visible" style="display: block;" viewBox="0 0 24 24" fill="none" xmlns="http://www.w3.org/2000/svg">
<g id="Layer_1">
<g id="Group" opacity="0.4">
<path id="Vector" d="M0 14.2002V20.0669C0 21.69 1.34 23.0002 3 23.0002H21C22.66 23.0002 24 21.69 24 20.0669V14.2002H15V15.6669C15 16.4686 14.32 17.1335 13.5 17.1335H10.5C9.68 17.1335 9 16.4686 9 15.6669V14.2002H0Z" fill="var(--fill-0, #C9ADA7)"/>
</g>
<path id="Vector_2" d="M6.76 5.4H3C1.34 5.4 0 6.71022 0 8.33333V14.2H24V8.33333C24 6.71022 22.66 5.4 21 5.4H17.24V3.56178C17.24 2.15378 16.06 1 14.62 1H9.38C7.94 1 6.76 2.15378 6.76 3.56178V5.4ZM9 3.56178C9 3.36622 9.16 3.19022 9.38 3.19022H14.62C14.82 3.19022 15 3.34667 15 3.56178V5.4H9V3.56178Z" fill="var(--fill-0, #C9ADA7)"/>
</g>
</svg>
