<svg preserveAspectRatio="none" width="100%" height="100%" overflow="visible" style="display: block;" viewBox="0 0 24 20" fill="none" xmlns="http://www.w3.org/2000/svg">
<g id="Layer_1" clip-path="url(#clip0_0_22)">
<g id="Group" opacity="0.4">
<path id="Vector" d="M2.40039 2.5C2.40039 1.11667 3.47239 0 4.80039 0H19.2004C20.5284 0 21.6004 1.11667 21.6004 2.5V8.3C21.2164 8.18333 20.8164 8.11667 20.4004 8.11667C19.9844 8.11667 19.5844 8.18333 19.2004 8.3V2.5H4.80039V8.3C4.41639 8.18333 4.01639 8.11667 3.60039 8.11667C3.18439 8.11667 2.78439 8.18333 2.40039 8.3V2.5Z" fill="var(--fill-0, #C9ADA7)"/>
</g>
<path id="Vector_2" d="M16.8 18.75C16.8 19.4333 17.344 20 18 20H22.8C23.456 20 24 19.4333 24 18.75C24 17.3667 22.928 16.25 21.6 16.25H19.2C17.872 16.25 16.8 17.3667 16.8 18.75ZM22.8 12.5C22.8 11.1167 21.728 10 20.4 10C19.072 10 18 11.1167 18 12.5C18 13.8833 19.072 15 20.4 15C21.728 15 22.8 13.8833 22.8 12.5ZM10.8 16.25C9.472 16.25 8.4 17.3667 8.4 18.75C8.4 19.4333 8.944 20 9.6 20H14.4C15.056 20 15.6 19.4333 15.6 18.75C15.6 17.3667 14.528 16.25 13.2 16.25H10.8ZM12 15C13.328 15 14.4 13.8833 14.4 12.5C14.4 11.1167 13.328 10 12 10C10.672 10 9.6 11.1167 9.6 12.5C9.6 13.8833 10.672 15 12 15ZM2.4 16.25C1.072 16.25 0 17.3667 0 18.75C0 19.4333 0.544 20 1.2 20H6C6.656 20 7.2 19.4333 7.2 18.75C7.2 17.3667 6.128 16.25 4.8 16.25H2.4ZM3.6 15C4.928 15 6 13.8833 6 12.5C6 11.1167 4.928 10 3.6 10C2.272 10 1.2 11.1167 1.2 12.5C1.2 13.8833 2.272 15 3.6 15Z" fill="var(--fill-0, #C9ADA7)"/>
</g>
<defs>
<clipPath id="clip0_0_22">
<rect width="24" height="20" fill="white"/>
</clipPath>
</defs>
</svg>
