<svg preserveAspectRatio="none" width="100%" height="100%" overflow="visible" style="display: block;" viewBox="0 0 21.0045 24.0227" fill="none" xmlns="http://www.w3.org/2000/svg">
<g id="Group 13173">
<g id="Group" opacity="0.4">
<path id="Vector" d="M10.9005 15.56C10.9005 16.7 11.8205 17.62 12.9605 17.62C14.1005 17.62 15.0205 16.7 15.0205 15.56C15.0205 14.42 14.1005 13.5 12.9605 13.5C11.8205 13.5 10.9005 14.42 10.9005 15.56ZM6.02047 15V17.24C6.02047 17.24 6.02047 17.32 6.02047 17.36L10.7805 19.74C11.6405 20.18 12.1205 21.1 12.0005 22C12.4205 22.12 12.8405 22.2 13.2605 22.26L14.8005 22.48C14.9805 22.5 15.1605 22.48 15.3205 22.48H15.3405C14.9805 22.4 14.6405 22.26 14.3405 22.02C13.5205 21.36 13.2805 20.24 13.7005 19.32H13.6605C11.8405 19.06 10.1805 18.14 8.98047 16.74V15.02C8.98047 14.2 8.30047 13.52 7.48047 13.52C6.66047 13.52 5.98047 14.2 5.98047 15.02L6.02047 15Z" fill="var(--fill-0, #C9ADA7)"/>
</g>
<path id="Vector_2" d="M15.0208 15.56C15.0208 14.42 14.1008 13.5 12.9608 13.5C11.8208 13.5 10.9008 14.42 10.9008 15.56C10.9008 16.7 11.8208 17.62 12.9608 17.62C14.1008 17.62 15.0208 16.7 15.0208 15.56ZM20.5008 17.94L17.5408 21.66C16.7608 22.64 15.3408 22.78 14.3808 22.02C13.5608 21.36 13.3208 20.24 13.7408 19.32H13.7008C11.8808 19.06 10.2208 18.14 9.02076 16.74V15.02C9.02076 14.2 8.34076 13.52 7.52076 13.52C6.70076 13.52 6.02076 14.2 6.02076 15.02V17.26C6.02076 17.26 6.02076 17.34 6.02076 17.38L10.7808 19.76C11.9008 20.32 12.3408 21.66 11.7808 22.78C11.2208 23.9 9.88076 24.34 8.76076 23.78L1.28076 20.04C1.28076 20.04 1.18076 19.98 1.12076 19.96C0.900757 19.82 0.680757 19.66 0.520757 19.46C0.300757 19.2 0.160757 18.92 0.0807566 18.6C-0.0792434 18.04 0.000756621 17.42 0.300757 16.88C0.320757 16.82 0.360757 16.78 0.400757 16.72L3.54076 12C4.80076 10.12 6.90076 9 9.16076 9H12.6808C14.8608 9 16.9008 10.06 18.1808 11.82L20.5608 15.14C20.6608 15.28 20.7408 15.42 20.8208 15.58C20.9608 15.9 21.0208 16.22 21.0008 16.56C21.0008 17.06 20.8008 17.54 20.4808 17.94H20.5008ZM10.5208 0C12.6008 0 14.2808 1.68 14.2808 3.76C14.2808 5.84 12.6008 7.52 10.5208 7.52C8.44076 7.52 6.76076 5.84 6.76076 3.76C6.76076 1.68 8.44076 0 10.5208 0Z" fill="var(--fill-0, #C9ADA7)"/>
</g>
</svg>
