<svg preserveAspectRatio="none" width="100%" height="100%" overflow="visible" style="display: block;" viewBox="0 0 24 24" fill="none" xmlns="http://www.w3.org/2000/svg">
<g id="Layer_1" clip-path="url(#clip0_0_4)">
<g id="Group" opacity="0.4">
<path id="Vector" d="M17.491 1.98V2.7675C17.491 3.905 17.9532 4.99 18.7532 5.7775L19.6243 6.635C20.8155 7.8075 21.4732 9.4 21.4732 11.045V11.8325C21.4732 12.375 21.9177 12.8125 22.4688 12.8125C23.0199 12.8125 23.4643 12.375 23.4643 11.8325V11.045C23.4643 8.875 22.5932 6.775 21.0288 5.2525L20.1577 4.395C19.7132 3.9575 19.4821 3.38 19.4821 2.7675V1.98C19.4821 1.4375 19.0377 1 18.4866 1C17.9355 1 17.491 1.4375 17.491 1.98ZM13.5088 1.98V2.7675C13.5088 4.9375 14.3799 7.0375 15.9443 8.56L16.8155 9.4175C17.2599 9.855 17.491 10.4325 17.491 11.045V11.8325C17.491 12.375 17.9355 12.8125 18.4866 12.8125C19.0377 12.8125 19.4821 12.375 19.4821 11.8325V11.045C19.4821 9.9075 19.0199 8.8225 18.2199 8.035L17.3488 7.1775C16.1577 6.005 15.4999 4.4125 15.4999 2.7675V1.98C15.4999 1.4375 15.0555 1 14.5043 1C13.9532 1 13.5088 1.4375 13.5088 1.98Z" fill="var(--fill-0, #C9ADA7)"/>
</g>
<path id="Vector_2" d="M23.5 16.4175C23.5 15.875 23.0556 15.4375 22.5044 15.4375C21.9533 15.4375 21.5089 15.875 21.5089 16.4175V21.0025C21.5089 21.545 21.9533 21.9825 22.5044 21.9825C23.0556 21.9825 23.5 21.545 23.5 21.0025V16.4175ZM2.16667 15.4375C0.691111 15.4375 -0.5 16.61 -0.5 18.0625V19.375C-0.5 20.8275 0.691111 22 2.16667 22H18.1667C18.8956 22 19.5 21.405 19.5 20.6875V16.75C19.5 16.0325 18.8956 15.4375 18.1667 15.4375H2.16667ZM16.8333 18.0625V19.375H12.8333V18.0625H16.8333Z" fill="var(--fill-0, #C9ADA7)"/>
</g>
<defs>
<clipPath id="clip0_0_4">
<rect width="24" height="24" fill="white"/>
</clipPath>
</defs>
</svg>
