<svg width="24" height="24" viewBox="0 0 24 24" fill="none" xmlns="http://www.w3.org/2000/svg">
  <path opacity="0.4" d="M18 20.123H21C21 20.9304 20.32 21.5999 19.5 21.5999C18.68 21.5999 18 20.9304 18 20.123ZM3 20.123H6C6 20.9304 5.32 21.5999 4.5 21.5999C3.68 21.5999 3 20.9304 3 20.123ZM3 8.3076C3 5.03867 5.68 2.3999 9 2.3999H15C18.32 2.3999 21 5.03867 21 8.3076V9.90267C20.12 10.1981 19.5 11.0251 19.5 11.9901V14.1956H4.5V11.9901C4.5 11.0251 3.88 10.1981 3 9.90267V8.3076Z" fill="#C9ADA7"/>
  <path d="M0 12.0097V17.1691C0 18.8036 1.34 20.123 3 20.123H21C22.66 20.123 24 18.8036 24 17.1691V12.0097C24 10.7888 23 9.8042 21.76 9.8042C20.52 9.8042 19.52 10.7888 19.52 12.0097V14.2153H4.5V12.0097C4.5 10.7888 3.5 9.8042 2.26 9.8042C1.02 9.8042 0.02 10.7888 0.02 12.0097H0Z" fill="#C9ADA7"/>
</svg>
