<svg width="24" height="24" viewBox="0 0 24 24" fill="none" xmlns="http://www.w3.org/2000/svg">
  <path opacity="0.4" d="M4.5 3H19.5V3.52C19.5 5.5 18.7 7.42 17.3 8.82L14.12 12L17.3 15.18C18.7 16.58 19.5 18.5 19.5 20.48V21H16.5V20.48C16.5 19.28 16.02 18.14 15.18 17.3L12 14.12L8.82 17.3C7.98 18.14 7.5 19.28 7.5 20.48V21H4.5V20.48C4.5 18.5 5.3 16.58 6.7 15.18L9.88 12L6.7 8.82C5.3 7.42 4.5 5.5 4.5 3.52V3Z" fill="#C9ADA7"/>
  <path d="M4.5 21C3.68 21 3 21.68 3 22.5C3 23.32 3.68 24 4.5 24H19.5C20.32 24 21 23.32 21 22.5C21 21.68 20.32 21 19.5 21H4.5ZM4.5 0C3.68 0 3 0.68 3 1.5C3 2.32 3.68 3 4.5 3H19.5C20.32 3 21 2.32 21 1.5C21 0.68 20.32 0 19.5 0H4.5Z" fill="#C9ADA7"/>
</svg>
