<svg width="24" height="24" viewBox="0 0 24 21" fill="none" xmlns="http://www.w3.org/2000/svg">
  <path opacity="0.4" d="M17.333 19.04C17.333 20.125 18.2219 21 19.3241 21C20.4263 21 21.3152 20.125 21.3152 19.04C21.3152 18.8125 21.2797 18.585 21.2086 18.375H17.4397C17.3686 18.585 17.333 18.795 17.333 19.04ZM7.32412 4.585V11.795C7.32412 12.88 8.21301 13.755 9.31523 13.755H19.3063C20.4086 13.755 21.2975 12.88 21.2975 11.795V4.585C21.2975 3.5 20.4086 2.625 19.3063 2.625H9.31523C8.21301 2.625 7.32412 3.5 7.32412 4.585ZM5.33301 19.04C5.33301 20.125 6.2219 21 7.32412 21C8.42634 21 9.31523 20.125 9.31523 19.04C9.31523 18.8125 9.27967 18.585 9.20856 18.375H5.43967C5.36856 18.585 5.33301 18.795 5.33301 19.04Z" fill="#C9ADA7"/>
  <path d="M0.000199653 1.3125C0.000199653 0.595 0.604644 0 1.33353 0H2.00909C3.85798 0 5.35131 1.47 5.35131 3.29V15.1025C5.35131 15.47 5.65353 15.7675 6.02687 15.7675H22.7024C23.4313 15.7675 24.0358 16.3625 24.0358 17.08C24.0358 17.7975 23.4313 18.3925 22.7024 18.3925H6.00909C4.1602 18.3925 2.66687 16.9225 2.66687 15.1025V3.29C2.66687 2.9225 2.36464 2.625 1.99131 2.625H1.31576C0.586866 2.625 -0.0175781 2.03 -0.0175781 1.3125H0.000199653Z" fill="#C9ADA7"/>
</svg>
