<svg preserveAspectRatio="none" width="100%" height="100%" overflow="visible" style="display: block;" viewBox="0 0 24 24" fill="none" xmlns="http://www.w3.org/2000/svg">
<g id="Layer_1" clip-path="url(#clip0_0_59)">
<g id="Group" opacity="0.4">
<path id="Vector" d="M0 16.7108C0 20.7237 3.36 23.9806 7.5 23.9806C10.92 23.9806 13.82 21.7512 14.72 18.7076H11.74C11.74 18.7076 11.58 18.7076 11.52 18.7076C10.78 20.1034 9.26 21.0727 7.52 21.0727C5.04 21.0727 3.02 19.1147 3.02 16.7108C3.02 14.6947 4.42 13.0081 6.32 12.504L5.72 9.65428C2.44 10.4297 0.02 13.2989 0.02 16.7108H0Z" fill="var(--fill-0, #C9ADA7)"/>
</g>
<path id="Vector_2" d="M12.5 8.43296L13.62 13.8223H16.46C18.02 13.8223 19.42 14.7722 19.98 16.1874L21.18 19.2698L22.06 18.979C22.84 18.727 23.7 19.1341 23.96 19.8901C24.22 20.6462 23.8 21.4798 23.02 21.7318L20.78 22.4685C20.02 22.7205 19.18 22.3328 18.9 21.5961L17.2 17.1955C17.1 16.9047 16.82 16.7302 16.5 16.7302H11.78C10.36 16.7302 9.12 15.7609 8.84 14.4039L7.8 9.36349C7.5 7.90953 8.64 6.5525 10.18 6.5525C11.34 6.5525 12.32 7.34733 12.56 8.43296H12.5ZM9 0C10.44 0 11.62 1.14378 11.62 2.53958C11.62 3.93538 10.44 5.07916 9 5.07916C7.56 5.07916 6.38 3.93538 6.38 2.53958C6.38 1.14378 7.56 0 9 0Z" fill="var(--fill-0, #C9ADA7)"/>
</g>
<defs>
<clipPath id="clip0_0_59">
<rect width="24" height="24" fill="white"/>
</clipPath>
</defs>
</svg>
