<svg preserveAspectRatio="none" width="100%" height="100%" overflow="visible" style="display: block;" viewBox="0 0 24 24" fill="none" xmlns="http://www.w3.org/2000/svg">
<g id="Layer_1" clip-path="url(#clip0_0_20)">
<path id="Vector" d="M6.98719 14.9857C6.50719 15.5467 5.65386 15.601 5.10275 15.1124C4.55163 14.6238 4.4983 13.7552 4.9783 13.1943C6.68497 11.2219 9.19163 9.97333 11.9827 9.97333C14.7739 9.97333 17.2805 11.2219 18.9872 13.1943C19.4672 13.7552 19.4139 14.6238 18.8627 15.1124C18.3116 15.601 17.4583 15.5467 16.9783 14.9857C15.7516 13.5743 13.9739 12.6876 11.9827 12.6876C9.99163 12.6876 8.21386 13.5743 6.98719 14.9857ZM9.99163 19.4733C9.99163 18.3514 10.8805 17.4467 11.9827 17.4467C13.085 17.4467 13.9739 18.3514 13.9739 19.4733C13.9739 20.5952 13.085 21.5 11.9827 21.5C10.8805 21.5 9.99163 20.5952 9.99163 19.4733ZM12.0005 5.21429C8.21386 5.21429 4.78275 6.73429 2.2583 9.23143C1.72497 9.75619 0.889412 9.7381 0.373857 9.19524C-0.141699 8.65238 -0.123921 7.8019 0.409412 7.27714C3.39608 4.32762 7.48497 2.5 12.0005 2.5C16.5161 2.5 20.605 4.32762 23.5916 7.27714C24.125 7.8019 24.125 8.65238 23.6272 9.19524C23.1116 9.7381 22.2761 9.7381 21.7427 9.23143C19.2183 6.75238 15.7872 5.21429 12.0005 5.21429Z" fill="var(--fill-0, #C9ADA7)"/>
</g>
<defs>
<clipPath id="clip0_0_20">
<rect width="24" height="24" fill="white"/>
</clipPath>
</defs>
</svg>
